<?xml version="1.0" encoding="utf-8"?>
<!-- Generator: Adobe Illustrator 27.1.0, SVG Export Plug-In . SVG Version: 6.00 Build 0)  -->
<svg version="1.1" id="Layer_1" xmlns="http://www.w3.org/2000/svg" xmlns:xlink="http://www.w3.org/1999/xlink" x="0px" y="0px"
	 viewBox="0 0 1080 1080" style="enable-background:new 0 0 1080 1080;" xml:space="preserve">
<style type="text/css">
	.st0{fill:#0DFB97;}
</style>
<g>
	<path class="st0" d="M531.81,61.64L74,418.51c-1.45,1.13-2.6,2.54-3.44,4.11c-0.01,0.03-0.03,0.05-0.04,0.08
		c-0.11,0.21-0.23,0.4-0.33,0.61c-0.07,0.15-0.12,0.3-0.18,0.44c-0.02,0.04-0.03,0.08-0.05,0.12c-0.14,0.35-0.27,0.7-0.39,1.06
		c-0.02,0.07-0.04,0.15-0.06,0.23c-0.1,0.33-0.19,0.67-0.26,1.01c-0.02,0.12-0.04,0.24-0.06,0.36c-0.05,0.31-0.11,0.61-0.14,0.92
		c-0.02,0.18-0.02,0.36-0.04,0.54c-0.02,0.25-0.04,0.51-0.04,0.76c0,0.04-0.01,0.08-0.01,0.12c0,3,1.04,5.9,2.93,8.23l423.42,518.18
		l0,0l33.49,41c0.15,0.18,0.3,0.36,0.46,0.53l0.1,0.11c0.42,0.46,0.84,0.92,1.26,1.35c2.45,2.5,5.87,3.91,9.37,3.91
		c3.81,0,7.45-1.7,9.92-4.6c0.06-0.07,0.12-0.14,0.17-0.21l35.29-43.21l0,0l422.59-517.13c0.05-0.06,0.1-0.13,0.15-0.2
		c0.1-0.13,0.2-0.26,0.3-0.39s0.19-0.27,0.28-0.4s0.17-0.26,0.25-0.39c0.09-0.15,0.18-0.31,0.27-0.46c0.07-0.12,0.14-0.24,0.21-0.37
		c0.1-0.19,0.18-0.37,0.27-0.56c0.05-0.1,0.1-0.2,0.14-0.31c0.12-0.29,0.24-0.58,0.34-0.88c0-0.01,0.01-0.02,0.01-0.03l0,0
		c0.11-0.31,0.2-0.62,0.28-0.93c0.03-0.11,0.05-0.23,0.08-0.34c0.05-0.2,0.09-0.39,0.13-0.59c0.03-0.14,0.05-0.29,0.07-0.43
		c0.03-0.17,0.05-0.34,0.07-0.52c0.02-0.15,0.03-0.3,0.04-0.46c0.01-0.17,0.02-0.33,0.03-0.5c0.01-0.15,0.01-0.31,0.01-0.46
		c0-0.17,0-0.34-0.01-0.51c-0.01-0.15-0.01-0.3-0.02-0.44c-0.01-0.18-0.03-0.35-0.05-0.53c-0.02-0.14-0.03-0.28-0.05-0.42
		c-0.03-0.18-0.06-0.37-0.1-0.55c-0.02-0.13-0.05-0.26-0.08-0.38c-0.04-0.19-0.1-0.38-0.15-0.57c-0.03-0.12-0.06-0.24-0.1-0.35
		c-0.06-0.2-0.13-0.39-0.2-0.59c-0.04-0.11-0.07-0.22-0.11-0.32c-0.08-0.2-0.17-0.41-0.26-0.61c-0.04-0.1-0.08-0.19-0.12-0.29l0,0
		c-0.14-0.29-0.28-0.57-0.44-0.84c-0.06-0.11-0.13-0.21-0.2-0.32c-0.1-0.17-0.2-0.34-0.31-0.5c-0.08-0.11-0.16-0.22-0.24-0.34
		c-0.11-0.15-0.21-0.3-0.33-0.44c-0.09-0.11-0.18-0.22-0.27-0.32c-0.12-0.14-0.24-0.28-0.36-0.42c-0.09-0.1-0.19-0.2-0.29-0.3
		c-0.13-0.13-0.26-0.26-0.4-0.39c-0.1-0.09-0.2-0.19-0.31-0.28c-0.14-0.13-0.29-0.25-0.44-0.37c-0.06-0.05-0.12-0.1-0.18-0.15
		L643.45,135.95l-95.49-74.44c-4.71-3.67-11.25-3.59-15.87-0.06C532,61.51,531.9,61.57,531.81,61.64z M598.82,156.2
		c-20.77,15.84-40.49,33.45-58.86,52.58c-18.42-19.17-38.15-36.8-58.9-52.63l58.86-65.02L598.82,156.2z M553.99,264.5
		c0.82,1.04,1.63,2.08,2.44,3.13c0.55,0.71,1.1,1.42,1.64,2.13c0.83,1.08,1.65,2.17,2.47,3.26c0.51,0.67,1.01,1.34,1.52,2.02
		c0.94,1.26,1.87,2.53,2.81,3.81c0.37,0.5,0.74,1.01,1.11,1.51c1.28,1.77,2.56,3.55,3.82,5.33c0.33,0.47,0.66,0.94,0.99,1.42
		c0.94,1.34,1.87,2.68,2.8,4.03c0.46,0.68,0.93,1.36,1.39,2.04c0.79,1.16,1.57,2.31,2.35,3.48c0.49,0.73,0.98,1.47,1.47,2.21
		c0.75,1.13,1.5,2.27,2.24,3.41c0.48,0.74,0.96,1.47,1.43,2.21c0.76,1.19,1.52,2.38,2.28,3.57c0.44,0.69,0.87,1.37,1.31,2.06
		c0.87,1.38,1.72,2.77,2.58,4.17c0.31,0.5,0.62,1,0.93,1.51c1.15,1.89,2.29,3.79,3.43,5.7c0.27,0.45,0.53,0.9,0.79,1.35
		c0.86,1.47,1.73,2.94,2.58,4.42c0.4,0.69,0.79,1.38,1.18,2.08c0.71,1.25,1.43,2.51,2.13,3.77c0.42,0.75,0.84,1.51,1.26,2.27
		c0.67,1.22,1.34,2.44,2.01,3.66c0.42,0.76,0.83,1.53,1.24,2.3c0.68,1.26,1.35,2.53,2.02,3.8c0.38,0.72,0.76,1.43,1.13,2.15
		c0.77,1.47,1.52,2.95,2.28,4.43c0.26,0.52,0.53,1.03,0.79,1.54c1.01,1.99,2.01,3.99,2.99,6c0.22,0.45,0.43,0.9,0.65,1.35
		c0.76,1.57,1.52,3.13,2.27,4.71c0.34,0.72,0.67,1.43,1.01,2.15c0.62,1.32,1.24,2.64,1.84,3.96c0.36,0.79,0.73,1.58,1.09,2.38
		c0.58,1.27,1.15,2.54,1.72,3.82c0.36,0.8,0.71,1.6,1.07,2.41c0.58,1.31,1.15,2.63,1.71,3.94c0.33,0.76,0.65,1.51,0.98,2.27
		c0.64,1.5,1.27,3.01,1.9,4.52c0.24,0.57,0.48,1.13,0.71,1.7c0.85,2.07,1.69,4.14,2.51,6.22c0.19,0.49,0.38,0.98,0.58,1.47
		c0.63,1.6,1.25,3.2,1.87,4.81c0.29,0.77,0.58,1.54,0.87,2.31c0.51,1.34,1.01,2.68,1.5,4.03c0.31,0.84,0.62,1.68,0.92,2.53
		c0.24,0.67,0.48,1.34,0.72,2.01H442.64c0.24-0.67,0.48-1.34,0.72-2.01c0.31-0.84,0.61-1.69,0.92-2.53c0.5-1.34,1-2.69,1.5-4.03
		c0.29-0.77,0.58-1.54,0.87-2.31c0.61-1.61,1.24-3.21,1.87-4.81c0.19-0.49,0.38-0.98,0.58-1.47c0.82-2.08,1.66-4.15,2.51-6.22
		c0.23-0.57,0.47-1.14,0.71-1.7c0.63-1.51,1.26-3.02,1.9-4.52c0.32-0.76,0.65-1.51,0.97-2.27c0.57-1.32,1.14-2.64,1.72-3.95
		c0.35-0.8,0.71-1.6,1.06-2.4c0.57-1.28,1.14-2.55,1.72-3.83c0.36-0.79,0.72-1.59,1.08-2.38c0.61-1.32,1.23-2.64,1.84-3.96
		c0.34-0.72,0.67-1.44,1.01-2.15c0.75-1.57,1.51-3.14,2.27-4.71c0.22-0.45,0.43-0.9,0.65-1.35c0.98-2.01,1.98-4.01,2.99-6
		c0.26-0.52,0.53-1.03,0.79-1.54c0.75-1.48,1.51-2.96,2.28-4.43c0.37-0.72,0.75-1.43,1.13-2.15c0.67-1.27,1.34-2.54,2.02-3.8
		c0.41-0.77,0.83-1.53,1.24-2.3c0.66-1.22,1.33-2.44,2.01-3.66c0.42-0.76,0.84-1.51,1.26-2.27c0.7-1.26,1.42-2.51,2.13-3.77
		c0.39-0.69,0.79-1.39,1.18-2.08c0.85-1.48,1.71-2.95,2.58-4.42c0.26-0.45,0.53-0.9,0.79-1.35c1.13-1.91,2.27-3.81,3.43-5.7
		c0.31-0.5,0.62-1,0.93-1.51c0.85-1.39,1.71-2.78,2.58-4.17c0.43-0.69,0.87-1.38,1.31-2.06c0.76-1.19,1.51-2.39,2.28-3.57
		c0.48-0.74,0.95-1.48,1.43-2.21c0.74-1.14,1.49-2.28,2.24-3.41c0.49-0.74,0.98-1.47,1.47-2.21c0.78-1.16,1.56-2.32,2.35-3.48
		c0.46-0.68,0.92-1.36,1.39-2.04c0.93-1.35,1.86-2.69,2.8-4.03c0.33-0.47,0.66-0.95,0.99-1.42c1.26-1.79,2.54-3.57,3.82-5.34
		c0.36-0.5,0.73-1,1.1-1.49c0.93-1.28,1.87-2.55,2.82-3.82c0.5-0.68,1.01-1.35,1.52-2.02c0.82-1.09,1.64-2.18,2.47-3.26
		c0.55-0.71,1.09-1.42,1.64-2.13c0.81-1.05,1.62-2.09,2.44-3.13c0.56-0.71,1.11-1.41,1.67-2.12c0.85-1.06,1.7-2.12,2.55-3.18
		c0.53-0.65,1.05-1.31,1.59-1.96c0.99-1.21,1.99-2.42,2.99-3.62c0.4-0.48,0.8-0.97,1.2-1.44c1.33-1.59,2.68-3.17,4.03-4.75
		c1.35,1.57,2.69,3.15,4.03,4.75c0.4,0.48,0.8,0.96,1.2,1.44c1,1.2,2,2.41,2.99,3.62c0.53,0.65,1.06,1.31,1.59,1.96
		c0.85,1.06,1.7,2.11,2.55,3.18C552.88,263.09,553.43,263.79,553.99,264.5z M404.85,449.24c-0.57,2.08-1.13,4.17-1.68,6.26
		c-0.39,1.49-0.78,2.99-1.17,4.49c-0.55,2.15-1.07,4.3-1.59,6.45c-0.35,1.44-0.7,2.88-1.04,4.33c-0.54,2.29-1.05,4.6-1.56,6.9
		c-0.29,1.31-0.59,2.62-0.87,3.93c-0.59,2.73-1.14,5.47-1.69,8.21c-0.18,0.89-0.37,1.77-0.54,2.66c-0.71,3.64-1.39,7.29-2.03,10.95
		c-0.14,0.78-0.26,1.57-0.39,2.35c-0.49,2.87-0.97,5.74-1.42,8.61c-0.2,1.3-0.39,2.61-0.58,3.91c-0.35,2.37-0.71,4.73-1.03,7.11
		c-0.2,1.46-0.39,2.93-0.58,4.39c-0.29,2.23-0.57,4.45-0.84,6.68c-0.18,1.53-0.35,3.07-0.52,4.61c-0.24,2.17-0.47,4.35-0.69,6.53
		c-0.16,1.57-0.31,3.14-0.45,4.7c-0.2,2.17-0.39,4.33-0.56,6.5c-0.13,1.57-0.25,3.14-0.37,4.71c-0.16,2.2-0.31,4.4-0.44,6.6
		c-0.1,1.54-0.2,3.08-0.28,4.63c-0.12,2.28-0.23,4.56-0.33,6.84c-0.06,1.46-0.14,2.93-0.19,4.39c-0.09,2.51-0.16,5.03-0.22,7.55
		c-0.03,1.23-0.07,2.46-0.1,3.7c-0.07,3.75-0.11,7.51-0.11,11.27c0,3.2,0.03,6.4,0.08,9.6c0.02,1.01,0.04,2.02,0.06,3.03
		c0.05,2.22,0.1,4.43,0.17,6.65c0.04,1.15,0.08,2.31,0.12,3.46c0.08,2.13,0.17,4.26,0.27,6.39c0.05,1.12,0.1,2.24,0.16,3.36
		c0.03,0.53,0.05,1.06,0.08,1.59L241.04,441.82h165.88c-0.28,0.96-0.53,1.93-0.81,2.89C405.69,446.22,405.27,447.73,404.85,449.24z
		 M521.39,229.16c-0.62,0.72-1.24,1.44-1.85,2.16c-0.92,1.07-1.83,2.15-2.74,3.23c-0.62,0.74-1.24,1.48-1.86,2.22
		c-0.9,1.08-1.79,2.16-2.68,3.25c-0.61,0.75-1.22,1.49-1.83,2.25c-0.89,1.1-1.78,2.21-2.67,3.32c-0.59,0.74-1.18,1.48-1.77,2.22
		c-0.91,1.15-1.81,2.32-2.71,3.48c-0.55,0.71-1.1,1.41-1.65,2.12c-0.98,1.28-1.96,2.57-2.93,3.86c-0.45,0.6-0.91,1.19-1.35,1.79
		c-1.4,1.88-2.8,3.77-4.18,5.67c-0.01,0.02-0.02,0.03-0.03,0.05c-1.39,1.92-2.77,3.84-4.14,5.78c-0.45,0.64-0.9,1.29-1.35,1.93
		c-0.91,1.3-1.82,2.6-2.72,3.9c-0.54,0.78-1.07,1.57-1.61,2.36c-0.8,1.18-1.6,2.35-2.39,3.53c-0.57,0.84-1.12,1.69-1.69,2.54
		c-0.75,1.14-1.5,2.27-2.24,3.42c-0.57,0.88-1.14,1.76-1.71,2.64c-0.72,1.12-1.44,2.25-2.16,3.38c-0.57,0.9-1.13,1.8-1.7,2.7
		c-0.7,1.13-1.4,2.26-2.1,3.39c-0.56,0.91-1.11,1.81-1.67,2.72c-0.7,1.15-1.39,2.3-2.07,3.45c-0.54,0.9-1.08,1.8-1.61,2.7
		c-0.7,1.19-1.39,2.38-2.09,3.58c-0.51,0.87-1.02,1.75-1.52,2.62c-0.73,1.28-1.46,2.56-2.18,3.85c-0.45,0.8-0.9,1.59-1.35,2.4
		c-0.95,1.7-1.88,3.41-2.81,5.12c-0.24,0.44-0.48,0.87-0.71,1.31c-1.1,2.03-2.18,4.08-3.26,6.13c-0.41,0.79-0.81,1.58-1.22,2.36
		c-0.69,1.34-1.39,2.68-2.07,4.02c-0.46,0.9-0.91,1.81-1.37,2.72c-0.62,1.24-1.24,2.47-1.85,3.71c-0.47,0.96-0.94,1.92-1.4,2.88
		c-0.58,1.2-1.17,2.41-1.74,3.61c-0.47,0.98-0.93,1.96-1.39,2.95c-0.56,1.2-1.12,2.39-1.67,3.59c-0.46,0.99-0.91,1.99-1.37,2.98
		c-0.55,1.2-1.09,2.41-1.63,3.62c-0.44,0.99-0.88,1.98-1.32,2.98c-0.54,1.23-1.07,2.46-1.61,3.7c-0.42,0.98-0.84,1.95-1.26,2.93
		c-0.54,1.28-1.07,2.55-1.61,3.83c-0.39,0.94-0.79,1.89-1.18,2.83c-0.57,1.38-1.12,2.77-1.68,4.16c-0.34,0.85-0.68,1.69-1.02,2.54
		c-0.71,1.8-1.41,3.61-2.11,5.42c-0.17,0.44-0.34,0.87-0.51,1.31c-0.85,2.23-1.69,4.47-2.51,6.72c-0.28,0.77-0.55,1.54-0.83,2.31
		c-0.54,1.5-1.09,3.01-1.62,4.52c-0.32,0.91-0.63,1.82-0.95,2.73c-0.37,1.05-0.74,2.11-1.1,3.16H246l217.55-240.33
		c20.77,15.69,40.49,33.29,58.83,52.51C522.05,228.39,521.72,228.78,521.39,229.16z M414.57,684.62c-0.15-1.17-0.3-2.33-0.45-3.5
		c-0.19-1.5-0.38-3-0.56-4.5c-0.2-1.73-0.39-3.46-0.58-5.19c-0.16-1.48-0.32-2.95-0.47-4.43c-0.18-1.77-0.34-3.55-0.5-5.32
		c-0.13-1.45-0.27-2.9-0.39-4.35c-0.15-1.82-0.28-3.64-0.42-5.46c-0.1-1.42-0.22-2.83-0.31-4.25c-0.12-1.88-0.23-3.76-0.33-5.64
		c-0.08-1.37-0.17-2.74-0.23-4.11c-0.1-1.97-0.17-3.95-0.25-5.92c-0.05-1.28-0.11-2.57-0.16-3.85c-0.07-2.18-0.12-4.36-0.17-6.54
		c-0.02-1.08-0.06-2.17-0.08-3.25c-0.05-3.26-0.08-6.53-0.08-9.79c0-3.67,0.04-7.34,0.1-11.01c0.02-1.21,0.07-2.42,0.1-3.63
		c0.06-2.45,0.12-4.9,0.21-7.35c0.05-1.45,0.13-2.89,0.2-4.34c0.1-2.2,0.19-4.41,0.32-6.6c0.09-1.54,0.19-3.08,0.29-4.63
		c0.13-2.1,0.27-4.2,0.42-6.29c0.12-1.59,0.26-3.18,0.39-4.77c0.17-2.04,0.34-4.08,0.53-6.11c0.15-1.62,0.32-3.24,0.49-4.85
		c0.2-2,0.41-4,0.63-5.99c0.18-1.63,0.38-3.26,0.58-4.89c0.24-1.97,0.48-3.95,0.74-5.92c0.22-1.64,0.44-3.27,0.67-4.9
		c0.27-1.96,0.56-3.91,0.85-5.87c0.25-1.64,0.5-3.27,0.77-4.9c0.31-1.94,0.63-3.88,0.96-5.82c0.28-1.63,0.56-3.27,0.86-4.9
		c0.35-1.93,0.71-3.86,1.07-5.79c0.31-1.63,0.62-3.25,0.95-4.87c0.38-1.93,0.78-3.85,1.19-5.77c0.34-1.61,0.68-3.22,1.03-4.83
		c0.42-1.93,0.86-3.85,1.31-5.77c0.37-1.59,0.73-3.19,1.11-4.78c0.46-1.93,0.94-3.86,1.43-5.78c0.39-1.57,0.78-3.14,1.19-4.71
		c0.51-1.94,1.03-3.88,1.56-5.82c0.42-1.54,0.83-3.08,1.26-4.62c0.55-1.97,1.13-3.93,1.7-5.9c0.44-1.49,0.86-2.99,1.31-4.48
		c0.08-0.26,0.16-0.52,0.24-0.78h211.83c0.08,0.26,0.16,0.52,0.24,0.78c0.45,1.49,0.88,2.99,1.31,4.48c0.57,1.96,1.15,3.93,1.7,5.9
		c0.43,1.54,0.84,3.08,1.26,4.62c0.53,1.94,1.05,3.88,1.56,5.82c0.41,1.57,0.8,3.14,1.19,4.72c0.48,1.92,0.96,3.85,1.43,5.78
		c0.38,1.59,0.75,3.19,1.12,4.79c0.44,1.92,0.88,3.84,1.3,5.76c0.35,1.61,0.69,3.22,1.03,4.83c0.4,1.92,0.8,3.85,1.19,5.77
		c0.32,1.62,0.64,3.25,0.95,4.87c0.37,1.93,0.73,3.86,1.07,5.79c0.29,1.63,0.58,3.26,0.86,4.9c0.33,1.94,0.65,3.88,0.96,5.82
		c0.26,1.63,0.52,3.27,0.77,4.9c0.3,1.95,0.58,3.91,0.85,5.87c0.23,1.63,0.46,3.27,0.67,4.9c0.26,1.97,0.5,3.94,0.74,5.92
		c0.2,1.63,0.4,3.26,0.58,4.89c0.22,1.99,0.43,3.99,0.63,5.99c0.17,1.62,0.33,3.23,0.49,4.85c0.19,2.03,0.36,4.07,0.53,6.1
		c0.13,1.59,0.27,3.18,0.39,4.78c0.16,2.09,0.29,4.19,0.42,6.28c0.1,1.54,0.21,3.09,0.29,4.63c0.12,2.2,0.22,4.4,0.32,6.6
		c0.06,1.45,0.14,2.89,0.2,4.34c0.09,2.45,0.15,4.9,0.21,7.35c0.03,1.21,0.08,2.42,0.1,3.63c0.07,3.66,0.1,7.33,0.1,11.01
		c0,3.25-0.03,6.5-0.08,9.75c-0.02,1.09-0.06,2.17-0.08,3.26c-0.05,2.16-0.09,4.33-0.17,6.49c-0.04,1.3-0.11,2.59-0.16,3.89
		c-0.08,1.95-0.15,3.91-0.25,5.86c-0.07,1.37-0.16,2.74-0.23,4.12c-0.11,1.87-0.21,3.75-0.33,5.62c-0.09,1.41-0.21,2.82-0.31,4.23
		c-0.14,1.83-0.27,3.66-0.42,5.48c-0.12,1.43-0.25,2.85-0.38,4.27c-0.16,1.8-0.33,3.61-0.51,5.41c-0.14,1.43-0.3,2.85-0.45,4.28
		c-0.19,1.79-0.39,3.59-0.6,5.38c-0.17,1.41-0.34,2.82-0.52,4.23c-0.15,1.24-0.31,2.47-0.48,3.7L539.92,860.03L414.57,684.62z
		 M695.41,642.46c0.03-0.52,0.05-1.04,0.08-1.56c0.06-1.13,0.11-2.26,0.16-3.39c0.1-2.11,0.19-4.23,0.27-6.35
		c0.04-1.15,0.08-2.3,0.12-3.45c0.07-2.21,0.12-4.42,0.17-6.64c0.02-1,0.05-2,0.06-3c0.05-3.19,0.08-6.38,0.08-9.57
		c0-3.76-0.04-7.52-0.11-11.27c-0.02-1.23-0.07-2.46-0.1-3.69c-0.06-2.52-0.12-5.05-0.22-7.56c-0.05-1.46-0.13-2.92-0.19-4.38
		c-0.1-2.28-0.2-4.57-0.33-6.85c-0.08-1.55-0.18-3.09-0.28-4.63c-0.14-2.2-0.28-4.39-0.44-6.59c-0.12-1.57-0.24-3.15-0.37-4.72
		c-0.18-2.17-0.36-4.33-0.56-6.5c-0.14-1.57-0.29-3.14-0.45-4.71c-0.22-2.18-0.45-4.35-0.69-6.53c-0.17-1.54-0.34-3.07-0.52-4.61
		c-0.26-2.23-0.55-4.46-0.84-6.68c-0.19-1.47-0.38-2.93-0.58-4.39c-0.33-2.37-0.68-4.74-1.03-7.11c-0.2-1.3-0.38-2.61-0.58-3.91
		c-0.45-2.88-0.93-5.76-1.43-8.64c-0.13-0.77-0.25-1.55-0.39-2.33c-0.64-3.66-1.32-7.31-2.03-10.95c-0.17-0.89-0.36-1.77-0.54-2.66
		c-0.55-2.74-1.1-5.48-1.69-8.21c-0.28-1.31-0.58-2.62-0.87-3.93c-0.51-2.3-1.02-4.6-1.56-6.89c-0.34-1.45-0.69-2.89-1.04-4.34
		c-0.52-2.15-1.05-4.3-1.59-6.45c-0.38-1.5-0.77-2.99-1.17-4.49c-0.55-2.09-1.11-4.18-1.68-6.26c-0.41-1.51-0.84-3.02-1.26-4.52
		c-0.27-0.96-0.53-1.93-0.81-2.89h165.8l-42.61,59.62L695.41,642.46z M833.84,415.82H664.85c-0.36-1.06-0.73-2.11-1.1-3.17
		c-0.31-0.91-0.63-1.82-0.95-2.73c-0.54-1.53-1.09-3.06-1.65-4.59c-0.27-0.74-0.53-1.48-0.8-2.22c-0.83-2.26-1.67-4.51-2.52-6.75
		c-0.13-0.33-0.26-0.66-0.39-1c-0.74-1.92-1.48-3.84-2.23-5.75c-0.31-0.79-0.63-1.57-0.94-2.35c-0.58-1.45-1.17-2.91-1.76-4.36
		c-0.37-0.89-0.74-1.78-1.11-2.67c-0.56-1.34-1.11-2.68-1.68-4.01c-0.4-0.93-0.8-1.86-1.2-2.78c-0.56-1.29-1.11-2.58-1.68-3.86
		c-0.41-0.94-0.83-1.88-1.25-2.82c-0.57-1.27-1.14-2.54-1.72-3.81c-0.42-0.93-0.85-1.86-1.28-2.79c-0.59-1.27-1.18-2.55-1.78-3.82
		c-0.43-0.91-0.86-1.82-1.29-2.73c-0.62-1.3-1.24-2.59-1.87-3.88c-0.42-0.87-0.85-1.75-1.27-2.62c-0.67-1.36-1.34-2.71-2.02-4.06
		c-0.4-0.8-0.8-1.59-1.2-2.39c-0.78-1.53-1.56-3.05-2.35-4.57c-0.31-0.61-0.62-1.22-0.94-1.82c-2.23-4.27-4.52-8.5-6.86-12.7
		c-0.35-0.63-0.71-1.25-1.06-1.88c-0.82-1.46-1.64-2.92-2.48-4.38c-0.44-0.76-0.88-1.52-1.32-2.28c-0.76-1.31-1.52-2.62-2.29-3.92
		c-0.48-0.81-0.96-1.62-1.45-2.43c-0.74-1.25-1.49-2.49-2.25-3.73c-0.5-0.83-1.01-1.65-1.52-2.48c-0.75-1.22-1.5-2.43-2.26-3.64
		c-0.52-0.83-1.04-1.65-1.56-2.48c-0.76-1.21-1.53-2.41-2.31-3.61c-0.52-0.81-1.04-1.62-1.57-2.43c-0.79-1.22-1.59-2.43-2.4-3.65
		c-0.51-0.78-1.03-1.55-1.54-2.33c-0.85-1.27-1.71-2.53-2.56-3.79c-0.48-0.71-0.96-1.41-1.44-2.12c-0.97-1.41-1.95-2.82-2.94-4.22
		c-0.38-0.54-0.75-1.08-1.13-1.62c-2.75-3.89-5.55-7.75-8.4-11.56c-0.4-0.54-0.81-1.08-1.22-1.61c-1.02-1.35-2.03-2.7-3.06-4.04
		c-0.53-0.69-1.06-1.36-1.59-2.05c-0.92-1.19-1.84-2.37-2.77-3.55c-0.58-0.73-1.16-1.46-1.74-2.19c-0.89-1.12-1.78-2.23-2.68-3.34
		c-0.61-0.75-1.22-1.5-1.83-2.25c-0.89-1.08-1.77-2.16-2.67-3.23c-0.62-0.75-1.25-1.5-1.88-2.24c-0.9-1.07-1.8-2.13-2.71-3.19
		c-0.63-0.74-1.26-1.47-1.89-2.21c-0.33-0.38-0.65-0.76-0.98-1.14c18.29-19.18,37.99-36.76,58.79-52.46L833.84,415.82z
		 M429.53,174.34L233.2,391.21l-22.28,24.61h-91.18L429.53,174.34z M109.34,441.82h99.75l180.57,252.67
		c0.14,1.01,0.31,2.02,0.46,3.04c0.21,1.39,0.41,2.79,0.63,4.18c0.24,1.56,0.5,3.12,0.75,4.68c0.22,1.37,0.45,2.75,0.68,4.12
		c0.27,1.57,0.55,3.15,0.83,4.72c0.24,1.35,0.48,2.71,0.73,4.05c0.29,1.59,0.61,3.17,0.91,4.76c0.26,1.33,0.51,2.66,0.78,3.98
		c0.33,1.62,0.67,3.23,1.01,4.85c0.27,1.28,0.53,2.57,0.81,3.85c0.36,1.67,0.74,3.33,1.12,5c0.28,1.22,0.54,2.45,0.83,3.67
		c0.41,1.75,0.83,3.5,1.26,5.24c0.27,1.13,0.54,2.26,0.82,3.38c0.5,2.03,1.03,4.05,1.55,6.06c0.22,0.84,0.42,1.68,0.65,2.51
		c0.75,2.85,1.53,5.68,2.32,8.51c0.21,0.75,0.43,1.49,0.64,2.23c0.6,2.09,1.19,4.18,1.81,6.25c0.33,1.1,0.67,2.19,1,3.28
		c0.52,1.72,1.04,3.44,1.58,5.16c0.38,1.21,0.77,2.4,1.16,3.61c0.51,1.6,1.02,3.19,1.54,4.78c0.41,1.25,0.84,2.5,1.26,3.75
		c0.52,1.53,1.03,3.06,1.56,4.59c0.44,1.28,0.9,2.55,1.35,3.82c0.53,1.49,1.06,2.98,1.6,4.47c0.47,1.29,0.95,2.57,1.43,3.85
		c0.54,1.46,1.09,2.93,1.64,4.39c0.49,1.29,1,2.58,1.5,3.86c0.39,1.01,0.78,2.03,1.18,3.04L109.34,441.82z M539.92,968.76
		l-24.22-29.64c-1.48-2.01-2.95-4.04-4.4-6.08c-0.45-0.64-0.9-1.28-1.35-1.92c-1.04-1.47-2.07-2.95-3.1-4.43
		c-0.52-0.75-1.04-1.51-1.56-2.27c-1-1.46-1.98-2.92-2.96-4.39c-0.46-0.69-0.93-1.38-1.39-2.07c-1.39-2.11-2.78-4.22-4.14-6.35
		c-0.19-0.29-0.37-0.59-0.56-0.88c-1.19-1.87-2.37-3.74-3.54-5.62c-0.48-0.77-0.94-1.53-1.42-2.3c-0.89-1.45-1.77-2.9-2.65-4.36
		c-0.49-0.82-0.98-1.64-1.47-2.46c-0.91-1.53-1.81-3.07-2.71-4.62c-0.4-0.69-0.81-1.38-1.21-2.07c-1.25-2.17-2.48-4.36-3.7-6.55
		c-0.33-0.6-0.66-1.2-0.99-1.81c-0.91-1.66-1.82-3.31-2.71-4.98c-0.45-0.85-0.9-1.69-1.35-2.54c-0.78-1.47-1.55-2.95-2.32-4.43
		c-0.44-0.86-0.89-1.71-1.33-2.57c-0.86-1.68-1.71-3.37-2.55-5.06c-0.31-0.62-0.62-1.24-0.93-1.86c-1.11-2.25-2.2-4.51-3.28-6.78
		c-0.36-0.75-0.71-1.5-1.06-2.25c-0.75-1.6-1.5-3.2-2.24-4.8c-0.41-0.89-0.82-1.79-1.22-2.68c-0.7-1.54-1.39-3.08-2.07-4.63
		c-0.37-0.85-0.75-1.69-1.12-2.54c-0.88-2.01-1.74-4.03-2.59-6.06c-0.15-0.36-0.31-0.71-0.46-1.07c-0.98-2.34-1.94-4.69-2.89-7.04
		c-0.33-0.81-0.65-1.63-0.97-2.44c-0.65-1.63-1.29-3.26-1.92-4.89c-0.34-0.89-0.68-1.78-1.02-2.67c-0.64-1.68-1.27-3.36-1.89-5.04
		c-0.29-0.77-0.57-1.54-0.86-2.32c-0.88-2.41-1.74-4.83-2.59-7.25c-0.14-0.41-0.28-0.82-0.42-1.23c-0.71-2.06-1.41-4.12-2.1-6.19
		c-0.27-0.82-0.54-1.65-0.81-2.48c-0.56-1.71-1.11-3.42-1.66-5.13c-0.27-0.85-0.54-1.7-0.81-2.55c-0.59-1.89-1.17-3.79-1.74-5.69
		c-0.18-0.61-0.37-1.22-0.55-1.84c-0.74-2.5-1.47-5.01-2.18-7.53c-0.16-0.55-0.3-1.11-0.46-1.66c-0.55-1.99-1.1-3.98-1.63-5.97
		c-0.22-0.82-0.43-1.64-0.65-2.45c-0.47-1.81-0.94-3.63-1.4-5.45c-0.2-0.79-0.4-1.57-0.59-2.36c-0.11-0.44-0.21-0.88-0.32-1.33
		l103.46,144.77c2.44,3.42,6.38,5.44,10.58,5.44c0.52,0,1.05-0.03,1.56-0.09c3.6-0.43,6.88-2.36,9.02-5.35l103.6-144.97
		c-0.09,0.38-0.18,0.77-0.28,1.16c-0.19,0.79-0.39,1.57-0.59,2.36c-0.45,1.79-0.91,3.58-1.37,5.37c-0.22,0.84-0.44,1.69-0.66,2.53
		c-0.5,1.89-1.02,3.78-1.54,5.67c-0.18,0.65-0.35,1.3-0.54,1.94c-0.7,2.49-1.41,4.97-2.15,7.45c-0.17,0.58-0.35,1.16-0.53,1.75
		c-0.57,1.91-1.15,3.82-1.75,5.73c-0.27,0.87-0.54,1.73-0.82,2.6c-0.53,1.67-1.07,3.34-1.61,5.01c-0.28,0.86-0.56,1.72-0.85,2.58
		c-0.64,1.94-1.3,3.87-1.96,5.8c-0.18,0.53-0.36,1.06-0.54,1.58c-0.83,2.4-1.69,4.8-2.56,7.18c-0.28,0.77-0.56,1.53-0.85,2.3
		c-0.62,1.67-1.24,3.34-1.87,5.01c-0.34,0.9-0.69,1.81-1.04,2.71c-0.61,1.59-1.24,3.19-1.86,4.77c-0.33,0.84-0.66,1.69-1,2.53
		c-0.87,2.17-1.75,4.33-2.65,6.48c-0.18,0.43-0.36,0.86-0.54,1.29c-0.88,2.11-1.78,4.21-2.69,6.31c-0.37,0.85-0.74,1.69-1.11,2.54
		c-0.68,1.54-1.36,3.07-2.05,4.6c-0.4,0.89-0.81,1.79-1.22,2.68c-0.72,1.58-1.46,3.16-2.19,4.73c-0.36,0.77-0.71,1.53-1.08,2.3
		c-1.07,2.26-2.16,4.51-3.26,6.75c-0.29,0.59-0.59,1.17-0.88,1.76c-0.85,1.72-1.71,3.43-2.58,5.13c-0.43,0.85-0.87,1.69-1.31,2.54
		c-0.76,1.48-1.54,2.96-2.31,4.43c-0.44,0.84-0.89,1.68-1.34,2.52c-0.89,1.66-1.78,3.31-2.69,4.96c-0.33,0.6-0.65,1.21-0.98,1.8
		c-1.21,2.19-2.44,4.37-3.68,6.55c-0.38,0.67-0.77,1.33-1.16,2c-0.9,1.57-1.81,3.13-2.73,4.68c-0.47,0.8-0.95,1.6-1.43,2.4
		c-0.88,1.48-1.77,2.94-2.67,4.41c-0.46,0.75-0.91,1.49-1.37,2.24c-1.18,1.9-2.36,3.8-3.56,5.69c-0.17,0.27-0.33,0.53-0.5,0.8
		c-1.36,2.13-2.74,4.25-4.13,6.36c-0.44,0.67-0.89,1.34-1.33,2c-0.99,1.49-1.99,2.97-2.99,4.45c-0.5,0.74-1,1.47-1.51,2.21
		c-1.03,1.5-2.08,3-3.13,4.49c-0.43,0.61-0.86,1.23-1.3,1.84c-1.44,2.04-2.9,4.06-4.38,6.07L539.92,968.76z M654.99,827.93
		c0.45-1.14,0.88-2.28,1.33-3.42c0.48-1.23,0.96-2.47,1.43-3.7c0.58-1.53,1.15-3.07,1.72-4.6c0.45-1.2,0.9-2.4,1.33-3.6
		c0.58-1.6,1.15-3.22,1.72-4.83c0.4-1.15,0.82-2.29,1.21-3.44c0.6-1.72,1.17-3.45,1.75-5.17c0.35-1.05,0.71-2.09,1.06-3.14
		c0.63-1.93,1.25-3.86,1.87-5.8c0.27-0.86,0.55-1.71,0.82-2.57c0.8-2.55,1.58-5.12,2.34-7.69c0.07-0.24,0.15-0.48,0.22-0.73
		c0.85-2.85,1.67-5.71,2.47-8.58c0.05-0.18,0.1-0.37,0.15-0.55c0.74-2.65,1.46-5.31,2.17-7.97c0.2-0.77,0.39-1.54,0.59-2.31
		c0.54-2.08,1.08-4.16,1.6-6.25c0.24-0.97,0.47-1.95,0.71-2.93c0.46-1.89,0.92-3.78,1.36-5.67c0.25-1.09,0.49-2.18,0.74-3.26
		c0.41-1.79,0.81-3.58,1.2-5.38c0.25-1.15,0.48-2.31,0.73-3.46c0.37-1.74,0.73-3.48,1.08-5.22c0.24-1.2,0.47-2.41,0.7-3.61
		c0.33-1.7,0.66-3.4,0.98-5.1c0.23-1.24,0.45-2.48,0.67-3.72c0.3-1.68,0.6-3.35,0.88-5.04c0.21-1.26,0.42-2.53,0.62-3.79
		c0.27-1.66,0.54-3.32,0.8-4.99c0.2-1.29,0.39-2.57,0.58-3.86c0.16-1.07,0.33-2.14,0.48-3.22L798.23,543.3l72.52-101.48h99.75
		L654.99,827.93z M868.91,415.82l-79.22-87.52L650.11,174.1l310,241.71L868.91,415.82L868.91,415.82z"/>
	<path class="st0" d="M1068.84,422.77c-0.39-3.46-2.16-6.62-4.9-8.78L548.02,9.62c-4.69-3.68-11.29-3.69-16-0.03L16.1,410.4
		c-2.76,2.14-4.53,5.3-4.94,8.76s0.6,6.95,2.79,9.66l515.92,639.49c2.46,3.05,6.18,4.83,10.1,4.84c0.01,0,0.01,0,0.02,0
		c3.92,0,7.63-1.77,10.1-4.81l515.92-635.92C1068.22,429.71,1069.23,426.24,1068.84,422.77z M540.03,1039.48L42.51,422.8
		L539.97,36.34l497.53,389.97L540.03,1039.48z"/>
</g>
</svg>
