<?xml version="1.0" encoding="utf-8"?>
<!-- Generator: Adobe Illustrator 27.1.0, SVG Export Plug-In . SVG Version: 6.00 Build 0)  -->
<svg version="1.1" id="Layer_1" xmlns="http://www.w3.org/2000/svg" xmlns:xlink="http://www.w3.org/1999/xlink" x="0px" y="0px"
	 viewBox="0 0 1080 1080" style="enable-background:new 0 0 1080 1080;" xml:space="preserve">
<style type="text/css">
	.st0{fill:#0DFB97;}
</style>
<g>
	<g>
		<g>
			<path class="st0" d="M415.68,839.43c-0.59-1.54-1.16-3.09-1.74-4.63c-0.5-1.36-1.01-2.71-1.51-4.07
				c-0.57-1.57-1.13-3.15-1.69-4.72c-0.48-1.35-0.96-2.69-1.43-4.04c-0.56-1.61-1.1-3.23-1.65-4.85c-0.45-1.32-0.9-2.64-1.34-3.97
				c-0.56-1.68-1.09-3.37-1.63-5.06c-0.41-1.27-0.82-2.54-1.22-3.81c-0.57-1.81-1.12-3.63-1.67-5.45c-0.35-1.16-0.71-2.31-1.06-3.47
				c-0.65-2.2-1.28-4.4-1.91-6.61c-0.22-0.79-0.46-1.57-0.68-2.36c-0.84-2.99-1.66-5.99-2.45-9c-0.23-0.88-0.45-1.77-0.68-2.65
				c-0.56-2.13-1.11-4.27-1.64-6.41c-0.3-1.19-0.57-2.38-0.86-3.57c-0.45-1.85-0.9-3.69-1.33-5.54c-0.3-1.29-0.58-2.58-0.88-3.88
				c-0.4-1.76-0.8-3.52-1.18-5.28c-0.29-1.35-0.57-2.71-0.86-4.07c-0.36-1.71-0.72-3.41-1.07-5.12c-0.28-1.4-0.55-2.8-0.82-4.21
				c-0.33-1.67-0.65-3.35-0.97-5.03c-0.27-1.43-0.52-2.86-0.77-4.29c-0.3-1.66-0.59-3.32-0.88-4.99c-0.25-1.45-0.48-2.9-0.72-4.35
				c-0.27-1.65-0.54-3.3-0.79-4.95c-0.23-1.47-0.45-2.94-0.66-4.42c-0.16-1.07-0.33-2.14-0.48-3.21L190.3,438.45H84.89
				l333.62,408.28c-0.42-1.07-0.83-2.14-1.25-3.22C416.73,842.16,416.2,840.8,415.68,839.43z"/>
		</g>
		<g>
			<polygon class="st0" points="215.78,384.97 423.25,155.79 95.89,410.98 192.24,410.98 			"/>
		</g>
		<g>
			<path class="st0" d="M541.56,917.67c-0.54,0.07-1.09,0.1-1.65,0.1c-4.44,0-8.6-2.14-11.18-5.75L419.41,759.03
				c0.11,0.47,0.22,0.94,0.34,1.4c0.2,0.83,0.41,1.66,0.62,2.49c0.48,1.92,0.97,3.84,1.48,5.76c0.23,0.86,0.45,1.73,0.68,2.59
				c0.56,2.11,1.14,4.21,1.72,6.31c0.16,0.59,0.32,1.17,0.48,1.76c0.75,2.66,1.52,5.31,2.3,7.96c0.19,0.65,0.39,1.29,0.59,1.94
				c0.6,2.01,1.22,4.01,1.84,6.02c0.28,0.9,0.57,1.8,0.85,2.7c0.57,1.81,1.16,3.62,1.75,5.43c0.29,0.87,0.57,1.75,0.86,2.62
				c0.73,2.19,1.47,4.37,2.22,6.55c0.15,0.43,0.29,0.86,0.44,1.3c0.89,2.56,1.81,5.12,2.73,7.66c0.3,0.82,0.6,1.63,0.91,2.45
				c0.66,1.78,1.32,3.55,1.99,5.32c0.36,0.94,0.72,1.88,1.08,2.82c0.67,1.73,1.34,3.45,2.03,5.17c0.34,0.86,0.68,1.72,1.03,2.58
				c1,2.49,2.02,4.97,3.05,7.44c0.16,0.38,0.32,0.75,0.48,1.13c0.9,2.14,1.82,4.27,2.74,6.4c0.39,0.9,0.79,1.79,1.18,2.68
				c0.72,1.63,1.45,3.27,2.19,4.89c0.43,0.94,0.86,1.89,1.29,2.83c0.78,1.7,1.57,3.39,2.36,5.07c0.37,0.79,0.74,1.59,1.12,2.38
				c1.14,2.4,2.3,4.78,3.47,7.16c0.32,0.66,0.66,1.31,0.99,1.97c0.89,1.79,1.79,3.57,2.69,5.34c0.46,0.91,0.93,1.81,1.4,2.72
				c0.81,1.56,1.63,3.12,2.45,4.68c0.48,0.9,0.95,1.79,1.43,2.69c0.94,1.76,1.9,3.51,2.86,5.26c0.35,0.64,0.69,1.27,1.05,1.91
				c1.29,2.32,2.59,4.63,3.91,6.92c0.42,0.73,0.85,1.46,1.27,2.19c0.95,1.63,1.9,3.26,2.86,4.88c0.52,0.87,1.04,1.74,1.56,2.6
				c0.93,1.54,1.86,3.08,2.8,4.61c0.5,0.81,0.99,1.62,1.5,2.43c1.24,1.99,2.48,3.97,3.74,5.94c0.2,0.31,0.39,0.62,0.59,0.93
				c1.44,2.25,2.9,4.48,4.38,6.71c0.49,0.73,0.98,1.46,1.47,2.19c1.04,1.55,2.08,3.1,3.13,4.64c0.55,0.8,1.1,1.6,1.65,2.39
				c1.08,1.57,2.18,3.13,3.27,4.68c0.48,0.67,0.95,1.35,1.43,2.02c1.54,2.15,3.08,4.29,4.65,6.42l25.59,31.32l26.52-32.48
				c1.56-2.13,3.1-4.27,4.62-6.42c0.46-0.65,0.91-1.3,1.37-1.95c1.11-1.58,2.21-3.16,3.3-4.75c0.53-0.78,1.06-1.55,1.59-2.33
				c1.06-1.56,2.11-3.13,3.16-4.7c0.47-0.71,0.94-1.41,1.41-2.12c1.47-2.23,2.93-4.47,4.37-6.72c0.18-0.28,0.35-0.56,0.53-0.84
				c1.27-1.99,2.52-4,3.77-6.01c0.49-0.79,0.97-1.58,1.45-2.37c0.95-1.55,1.89-3.1,2.82-4.66c0.51-0.85,1.01-1.69,1.51-2.54
				c0.97-1.64,1.93-3.3,2.89-4.95c0.41-0.7,0.82-1.4,1.22-2.11c1.31-2.3,2.61-4.6,3.89-6.92c0.35-0.63,0.69-1.27,1.04-1.91
				c0.96-1.74,1.9-3.49,2.84-5.24c0.47-0.89,0.94-1.77,1.41-2.66c0.82-1.56,1.64-3.12,2.44-4.68c0.46-0.89,0.92-1.79,1.38-2.68
				c0.92-1.8,1.82-3.61,2.72-5.42c0.31-0.62,0.62-1.24,0.93-1.86c1.16-2.37,2.31-4.75,3.44-7.13c0.38-0.81,0.76-1.62,1.14-2.43
				c0.78-1.66,1.55-3.33,2.32-5c0.43-0.94,0.86-1.89,1.29-2.83c0.73-1.62,1.45-3.24,2.17-4.87c0.39-0.89,0.79-1.78,1.18-2.68
				c0.96-2.21,1.91-4.44,2.84-6.66c0.19-0.46,0.38-0.91,0.57-1.37c0.95-2.28,1.88-4.56,2.8-6.85c0.36-0.89,0.71-1.78,1.06-2.67
				c0.66-1.68,1.32-3.36,1.97-5.04c0.37-0.95,0.73-1.91,1.09-2.86c0.67-1.76,1.32-3.53,1.97-5.29c0.3-0.81,0.6-1.62,0.89-2.43
				c0.92-2.52,1.82-5.05,2.7-7.59c0.19-0.56,0.38-1.12,0.57-1.67c0.7-2.04,1.39-4.08,2.07-6.13c0.3-0.91,0.6-1.82,0.89-2.73
				c0.58-1.76,1.14-3.52,1.7-5.29c0.29-0.91,0.58-1.83,0.86-2.74c0.63-2.01,1.24-4.03,1.84-6.05c0.18-0.62,0.37-1.23,0.56-1.85
				c0.77-2.62,1.53-5.24,2.27-7.87c0.19-0.68,0.38-1.37,0.57-2.05c0.55-1.99,1.1-3.99,1.63-5.99c0.24-0.89,0.47-1.78,0.7-2.67
				c0.49-1.89,0.98-3.78,1.45-5.68c0.21-0.83,0.42-1.66,0.62-2.49c0.1-0.41,0.19-0.81,0.29-1.22L551.09,912.02
				C548.83,915.18,545.36,917.21,541.56,917.67z"/>
		</g>
		<g>
			<path class="st0" d="M427.77,439.28c-0.48,1.58-0.93,3.16-1.39,4.74c-0.61,2.08-1.22,4.15-1.8,6.23
				c-0.46,1.62-0.89,3.25-1.33,4.88c-0.56,2.05-1.11,4.1-1.65,6.15c-0.43,1.66-0.84,3.32-1.26,4.98c-0.51,2.04-1.02,4.07-1.51,6.11
				c-0.4,1.68-0.79,3.37-1.18,5.05c-0.47,2.03-0.93,4.06-1.38,6.1c-0.37,1.7-0.73,3.4-1.09,5.11c-0.43,2.03-0.85,4.06-1.25,6.1
				c-0.34,1.71-0.67,3.43-1,5.15c-0.39,2.04-0.77,4.07-1.13,6.12c-0.31,1.72-0.61,3.45-0.91,5.18c-0.35,2.05-0.69,4.1-1.02,6.15
				c-0.28,1.73-0.55,3.45-0.81,5.18c-0.31,2.06-0.61,4.13-0.9,6.2c-0.24,1.73-0.48,3.45-0.71,5.18c-0.27,2.08-0.53,4.17-0.78,6.25
				c-0.21,1.72-0.42,3.44-0.61,5.17c-0.24,2.11-0.45,4.22-0.67,6.33c-0.17,1.71-0.35,3.42-0.51,5.13c-0.2,2.15-0.38,4.3-0.56,6.46
				c-0.14,1.68-0.29,3.36-0.41,5.04c-0.17,2.21-0.3,4.43-0.45,6.65c-0.1,1.63-0.22,3.26-0.31,4.89c-0.13,2.32-0.23,4.65-0.33,6.98
				c-0.07,1.53-0.15,3.06-0.21,4.59c-0.1,2.58-0.16,5.17-0.22,7.76c-0.03,1.28-0.08,2.55-0.1,3.83c-0.07,3.87-0.11,7.75-0.11,11.63
				c0,3.45,0.03,6.9,0.09,10.34c0.02,1.15,0.06,2.29,0.08,3.44c0.05,2.3,0.1,4.61,0.18,6.91c0.05,1.36,0.11,2.71,0.17,4.07
				c0.08,2.09,0.16,4.17,0.27,6.26c0.07,1.45,0.17,2.9,0.25,4.35c0.11,1.99,0.22,3.97,0.35,5.96c0.1,1.5,0.22,3,0.33,4.49
				c0.14,1.93,0.28,3.85,0.44,5.78c0.13,1.54,0.27,3.07,0.41,4.6c0.17,1.88,0.34,3.75,0.53,5.62c0.16,1.56,0.33,3.12,0.5,4.68
				c0.2,1.83,0.4,3.66,0.61,5.49c0.19,1.59,0.39,3.17,0.59,4.75c0.15,1.23,0.31,2.47,0.48,3.7l132.47,185.37L672.5,694.88
				c0.17-1.3,0.34-2.61,0.5-3.91c0.19-1.49,0.37-2.98,0.55-4.47c0.22-1.89,0.43-3.79,0.63-5.68c0.16-1.51,0.33-3.01,0.48-4.52
				c0.19-1.9,0.36-3.81,0.53-5.71c0.14-1.5,0.28-3.01,0.4-4.52c0.16-1.93,0.3-3.86,0.44-5.79c0.11-1.49,0.23-2.98,0.33-4.47
				c0.13-1.98,0.24-3.96,0.35-5.93c0.08-1.45,0.18-2.9,0.25-4.35c0.1-2.06,0.18-4.13,0.26-6.19c0.05-1.37,0.12-2.74,0.17-4.11
				c0.08-2.29,0.12-4.57,0.17-6.86c0.03-1.15,0.06-2.29,0.08-3.44c0.06-3.44,0.09-6.87,0.09-10.3c0-3.88-0.04-7.76-0.11-11.63
				c-0.02-1.28-0.07-2.56-0.1-3.83c-0.06-2.59-0.13-5.18-0.22-7.76c-0.06-1.53-0.14-3.06-0.21-4.59c-0.1-2.33-0.2-4.66-0.33-6.98
				c-0.09-1.63-0.21-3.26-0.31-4.9c-0.14-2.21-0.28-4.43-0.44-6.64c-0.13-1.69-0.27-3.37-0.41-5.05c-0.18-2.15-0.36-4.3-0.56-6.45
				c-0.16-1.71-0.34-3.42-0.51-5.13c-0.22-2.11-0.43-4.22-0.67-6.33c-0.19-1.73-0.4-3.45-0.61-5.17c-0.25-2.09-0.51-4.17-0.78-6.25
				c-0.23-1.73-0.47-3.45-0.71-5.18c-0.29-2.07-0.59-4.14-0.9-6.2c-0.26-1.73-0.53-3.46-0.81-5.18c-0.33-2.05-0.67-4.1-1.02-6.15
				c-0.29-1.73-0.6-3.45-0.91-5.18c-0.37-2.04-0.75-4.08-1.13-6.12c-0.33-1.72-0.66-3.43-1-5.15c-0.41-2.04-0.83-4.07-1.25-6.1
				c-0.36-1.7-0.72-3.41-1.09-5.11c-0.45-2.03-0.91-4.06-1.38-6.09c-0.39-1.69-0.78-3.38-1.18-5.06c-0.49-2.04-1-4.07-1.51-6.11
				c-0.42-1.66-0.83-3.32-1.26-4.98c-0.53-2.05-1.09-4.1-1.65-6.15c-0.44-1.63-0.88-3.26-1.33-4.88c-0.58-2.08-1.2-4.16-1.8-6.23
				c-0.46-1.58-0.91-3.16-1.39-4.74c-0.08-0.28-0.17-0.55-0.26-0.83H428.03C427.95,438.73,427.86,439.01,427.77,439.28z"/>
		</g>
		<g>
			<path class="st0" d="M812.89,545.69L698.83,705.3c-0.16,1.14-0.34,2.27-0.51,3.4c-0.2,1.36-0.4,2.72-0.61,4.08
				c-0.27,1.76-0.56,3.52-0.84,5.27c-0.22,1.34-0.43,2.67-0.66,4.01c-0.3,1.78-0.62,3.55-0.93,5.32c-0.23,1.31-0.46,2.62-0.71,3.93
				c-0.33,1.8-0.68,3.6-1.03,5.39c-0.25,1.27-0.49,2.55-0.74,3.82c-0.37,1.84-0.76,3.68-1.14,5.51c-0.26,1.22-0.51,2.44-0.77,3.66
				c-0.41,1.9-0.84,3.79-1.27,5.68c-0.26,1.15-0.51,2.3-0.78,3.45c-0.46,2-0.95,4-1.43,5.99c-0.25,1.03-0.49,2.06-0.75,3.09
				c-0.55,2.21-1.12,4.4-1.69,6.6c-0.21,0.81-0.41,1.63-0.63,2.45c-0.74,2.81-1.51,5.62-2.29,8.42c-0.05,0.19-0.1,0.39-0.16,0.58
				c-0.85,3.03-1.72,6.05-2.61,9.07c-0.08,0.26-0.16,0.51-0.23,0.77c-0.81,2.71-1.63,5.42-2.48,8.12c-0.28,0.91-0.58,1.81-0.87,2.72
				c-0.65,2.04-1.3,4.09-1.97,6.13c-0.37,1.11-0.75,2.21-1.12,3.32c-0.61,1.82-1.22,3.65-1.85,5.47c-0.42,1.21-0.86,2.42-1.28,3.63
				c-0.6,1.7-1.2,3.4-1.81,5.1c-0.46,1.27-0.94,2.54-1.41,3.81c-0.6,1.62-1.2,3.25-1.82,4.86c-0.5,1.31-1.01,2.61-1.51,3.91
				c-0.47,1.21-0.93,2.42-1.4,3.62l333.43-408.02H889.52L812.89,545.69z"/>
		</g>
		<g>
			<path class="st0" d="M641.08,406.19c-0.52-1.42-1.06-2.84-1.59-4.26c-0.31-0.81-0.61-1.63-0.92-2.44
				c-0.65-1.7-1.31-3.39-1.97-5.08c-0.2-0.52-0.4-1.04-0.61-1.56c-0.87-2.2-1.76-4.39-2.65-6.57c-0.25-0.6-0.5-1.2-0.75-1.8
				c-0.66-1.6-1.33-3.19-2-4.78c-0.34-0.8-0.69-1.6-1.03-2.4c-0.6-1.39-1.2-2.78-1.81-4.16c-0.37-0.85-0.75-1.7-1.13-2.55
				c-0.6-1.35-1.21-2.69-1.82-4.04c-0.38-0.84-0.76-1.68-1.15-2.51c-0.64-1.4-1.29-2.79-1.95-4.18c-0.36-0.76-0.71-1.52-1.07-2.27
				c-0.79-1.66-1.59-3.32-2.4-4.97c-0.23-0.47-0.46-0.95-0.69-1.42c-1.04-2.12-2.09-4.24-3.16-6.34c-0.28-0.55-0.56-1.09-0.84-1.63
				c-0.8-1.56-1.6-3.12-2.41-4.68c-0.4-0.76-0.8-1.51-1.2-2.27c-0.71-1.34-1.42-2.68-2.13-4.01c-0.43-0.81-0.87-1.62-1.31-2.43
				c-0.7-1.29-1.41-2.58-2.12-3.87c-0.44-0.8-0.89-1.6-1.33-2.4c-0.74-1.33-1.5-2.66-2.25-3.98c-0.42-0.73-0.83-1.46-1.25-2.19
				c-0.9-1.56-1.81-3.12-2.72-4.67c-0.28-0.47-0.56-0.95-0.84-1.43c-1.2-2.02-2.4-4.02-3.62-6.02c-0.32-0.53-0.66-1.06-0.98-1.59
				c-0.9-1.47-1.81-2.94-2.73-4.4c-0.46-0.73-0.92-1.46-1.38-2.18c-0.8-1.26-1.6-2.52-2.41-3.78c-0.5-0.78-1.01-1.56-1.52-2.34
				c-0.78-1.2-1.57-2.41-2.37-3.6c-0.52-0.78-1.03-1.56-1.55-2.33c-0.82-1.23-1.65-2.45-2.48-3.67c-0.49-0.72-0.98-1.44-1.47-2.15
				c-0.98-1.42-1.97-2.84-2.96-4.25c-0.35-0.5-0.69-1-1.04-1.5c-1.33-1.89-2.68-3.77-4.03-5.63c-0.39-0.54-0.78-1.07-1.17-1.6
				c-0.98-1.35-1.97-2.69-2.96-4.02c-0.53-0.71-1.07-1.42-1.6-2.13c-0.87-1.15-1.74-2.3-2.61-3.45c-0.58-0.75-1.16-1.5-1.74-2.25
				c-0.85-1.11-1.71-2.21-2.58-3.3c-0.59-0.75-1.18-1.49-1.77-2.24c-0.89-1.12-1.79-2.24-2.69-3.36c-0.56-0.69-1.11-1.39-1.68-2.07
				c-1.05-1.28-2.1-2.56-3.16-3.83c-0.42-0.51-0.84-1.02-1.27-1.53c-1.41-1.68-2.83-3.35-4.26-5.02c-1.43,1.66-2.85,3.33-4.26,5.02
				c-0.42,0.51-0.84,1.02-1.27,1.53c-1.06,1.27-2.11,2.55-3.16,3.83c-0.56,0.69-1.12,1.38-1.68,2.07c-0.9,1.12-1.8,2.23-2.69,3.36
				c-0.59,0.74-1.18,1.49-1.77,2.24c-0.86,1.1-1.72,2.2-2.58,3.3c-0.58,0.75-1.16,1.5-1.74,2.25c-0.88,1.14-1.75,2.3-2.61,3.45
				c-0.53,0.71-1.07,1.42-1.6,2.13c-1,1.34-1.99,2.69-2.98,4.04c-0.39,0.53-0.78,1.05-1.16,1.58c-1.36,1.87-2.7,3.75-4.04,5.64
				c-0.35,0.5-0.7,1-1.04,1.5c-0.99,1.41-1.98,2.83-2.96,4.25c-0.49,0.71-0.98,1.43-1.47,2.15c-0.83,1.22-1.66,2.45-2.48,3.67
				c-0.52,0.78-1.04,1.55-1.55,2.33c-0.79,1.2-1.58,2.4-2.37,3.6c-0.51,0.78-1.01,1.56-1.52,2.34c-0.81,1.25-1.61,2.51-2.41,3.78
				c-0.46,0.73-0.92,1.45-1.38,2.18c-0.92,1.46-1.82,2.93-2.73,4.4c-0.33,0.53-0.66,1.06-0.98,1.59c-1.22,2-2.42,4.01-3.62,6.02
				c-0.28,0.47-0.56,0.95-0.84,1.43c-0.91,1.55-1.82,3.11-2.72,4.67c-0.42,0.73-0.83,1.46-1.25,2.19c-0.75,1.32-1.51,2.65-2.25,3.98
				c-0.45,0.8-0.89,1.6-1.33,2.4c-0.71,1.29-1.42,2.58-2.12,3.87c-0.44,0.81-0.88,1.62-1.31,2.43c-0.72,1.33-1.43,2.67-2.13,4.01
				c-0.4,0.76-0.8,1.51-1.2,2.27c-0.81,1.55-1.61,3.12-2.41,4.68c-0.28,0.54-0.56,1.09-0.84,1.63c-1.07,2.11-2.12,4.22-3.16,6.34
				c-0.23,0.47-0.46,0.95-0.69,1.42c-0.81,1.65-1.61,3.31-2.4,4.97c-0.36,0.76-0.71,1.52-1.07,2.27c-0.65,1.39-1.31,2.78-1.95,4.18
				c-0.38,0.84-0.77,1.67-1.15,2.51c-0.61,1.35-1.22,2.69-1.82,4.05c-0.38,0.84-0.75,1.69-1.12,2.53c-0.61,1.39-1.21,2.78-1.81,4.17
				c-0.34,0.8-0.69,1.6-1.03,2.4c-0.68,1.59-1.34,3.18-2,4.78c-0.25,0.6-0.5,1.2-0.75,1.8c-0.9,2.18-1.78,4.38-2.65,6.57
				c-0.21,0.52-0.4,1.04-0.61,1.56c-0.67,1.69-1.33,3.38-1.97,5.08c-0.31,0.81-0.61,1.63-0.92,2.44c-0.53,1.42-1.07,2.83-1.59,4.26
				c-0.33,0.89-0.65,1.78-0.97,2.67c-0.26,0.71-0.51,1.41-0.76,2.12h205.71c-0.25-0.71-0.5-1.42-0.76-2.12
				C641.73,407.97,641.41,407.08,641.08,406.19z"/>
		</g>
		<g>
			<path class="st0" d="M374.92,598.79c0.06-2.66,0.13-5.32,0.23-7.98c0.06-1.55,0.13-3.09,0.2-4.64c0.11-2.41,0.21-4.82,0.35-7.23
				c0.09-1.63,0.19-3.26,0.3-4.89c0.14-2.33,0.3-4.65,0.47-6.97c0.12-1.66,0.25-3.32,0.39-4.98c0.19-2.29,0.38-4.58,0.59-6.87
				c0.15-1.66,0.31-3.32,0.48-4.97c0.23-2.3,0.48-4.6,0.73-6.9c0.18-1.62,0.36-3.25,0.55-4.87c0.28-2.36,0.58-4.71,0.89-7.06
				c0.2-1.55,0.4-3.1,0.61-4.64c0.35-2.51,0.72-5.01,1.09-7.51c0.21-1.38,0.4-2.76,0.62-4.14c0.48-3.04,0.98-6.07,1.5-9.1
				c0.14-0.83,0.27-1.66,0.42-2.49c0.68-3.86,1.39-7.72,2.14-11.57c0.18-0.94,0.39-1.87,0.57-2.81c0.58-2.9,1.17-5.79,1.78-8.67
				c0.3-1.39,0.62-2.77,0.92-4.15c0.54-2.43,1.08-4.87,1.65-7.29c0.36-1.53,0.73-3.05,1.1-4.57c0.55-2.28,1.11-4.55,1.68-6.82
				c0.4-1.58,0.82-3.16,1.23-4.74c0.58-2.21,1.17-4.42,1.77-6.62c0.44-1.6,0.88-3.19,1.33-4.78c0.29-1.02,0.56-2.04,0.85-3.06
				H224.07L375.7,650.62c-0.03-0.56-0.05-1.12-0.08-1.68c-0.06-1.18-0.12-2.37-0.17-3.55c-0.11-2.25-0.2-4.5-0.29-6.75
				c-0.05-1.22-0.09-2.44-0.13-3.65c-0.07-2.34-0.13-4.68-0.18-7.03c-0.02-1.07-0.05-2.13-0.07-3.2c-0.05-3.38-0.09-6.77-0.09-10.15
				c0-3.98,0.04-7.95,0.11-11.91C374.84,601.39,374.88,600.09,374.92,598.79z"/>
		</g>
		<g>
			<path class="st0" d="M459.21,157.01l-229.9,253.97h178.68c0.38-1.12,0.77-2.23,1.16-3.34c0.33-0.96,0.66-1.93,1-2.89
				c0.56-1.59,1.14-3.18,1.71-4.77c0.29-0.81,0.58-1.63,0.88-2.44c0.87-2.37,1.75-4.74,2.65-7.1c0.18-0.46,0.36-0.92,0.54-1.39
				c0.73-1.91,1.47-3.83,2.23-5.73c0.36-0.9,0.72-1.79,1.08-2.69c0.59-1.47,1.17-2.93,1.77-4.39c0.41-1,0.83-2,1.24-3
				c0.56-1.35,1.13-2.7,1.7-4.05c0.44-1.04,0.89-2.07,1.33-3.1c0.56-1.3,1.13-2.61,1.7-3.91c0.46-1.05,0.93-2.1,1.4-3.15
				c0.57-1.28,1.14-2.55,1.72-3.83c0.48-1.05,0.96-2.1,1.44-3.15c0.59-1.27,1.18-2.53,1.77-3.8c0.49-1.04,0.98-2.08,1.47-3.12
				c0.61-1.28,1.22-2.55,1.84-3.82c0.49-1.01,0.98-2.03,1.48-3.04c0.65-1.31,1.3-2.62,1.96-3.92c0.48-0.96,0.96-1.92,1.44-2.88
				c0.72-1.42,1.46-2.84,2.19-4.25c0.43-0.83,0.86-1.67,1.29-2.5c1.13-2.17,2.28-4.32,3.44-6.47c0.25-0.46,0.5-0.92,0.75-1.38
				c0.98-1.81,1.97-3.61,2.97-5.41c0.47-0.85,0.95-1.69,1.43-2.53c0.76-1.36,1.53-2.72,2.3-4.07c0.53-0.93,1.07-1.85,1.61-2.77
				c0.73-1.26,1.46-2.52,2.21-3.78c0.56-0.95,1.13-1.9,1.7-2.86c0.73-1.22,1.46-2.43,2.19-3.65c0.58-0.96,1.17-1.92,1.76-2.88
				c0.74-1.2,1.47-2.39,2.22-3.58c0.6-0.95,1.19-1.9,1.79-2.85c0.75-1.19,1.51-2.38,2.28-3.57c0.6-0.93,1.2-1.86,1.8-2.79
				c0.79-1.21,1.58-2.41,2.37-3.61c0.59-0.9,1.18-1.79,1.78-2.69c0.84-1.25,1.68-2.49,2.53-3.73c0.57-0.83,1.13-1.67,1.7-2.49
				c0.95-1.38,1.91-2.75,2.87-4.12c0.48-0.68,0.95-1.36,1.42-2.04c1.45-2.05,2.9-4.08,4.37-6.11c0.01-0.02,0.02-0.03,0.04-0.05
				c1.46-2.01,2.93-4.01,4.42-5.99c0.47-0.64,0.96-1.26,1.43-1.9c1.03-1.36,2.06-2.73,3.09-4.08c0.58-0.75,1.16-1.5,1.74-2.24
				c0.95-1.23,1.91-2.46,2.87-3.68c0.62-0.79,1.24-1.57,1.87-2.35c0.93-1.17,1.87-2.35,2.82-3.51c0.64-0.79,1.29-1.58,1.94-2.37
				c0.94-1.15,1.88-2.29,2.83-3.43c0.65-0.78,1.31-1.57,1.96-2.35c0.96-1.14,1.93-2.28,2.89-3.41c0.65-0.76,1.3-1.52,1.96-2.28
				c0.35-0.41,0.7-0.82,1.05-1.22C502,192.19,481.16,173.59,459.21,157.01z"/>
		</g>
		<g>
			<path class="st0" d="M539.96,192.18c19.41-20.21,40.25-38.83,62.2-55.56l-62.25-68.76l-62.2,68.71
				C499.64,153.3,520.5,171.93,539.96,192.18z"/>
		</g>
		<g>
			<path class="st0" d="M14.26,418.36l525.76,651.68l525.71-647.98L539.96,9.96L14.26,418.36z M548.41,36.55l100.91,78.66
				l383.04,298.66c0.07,0.05,0.13,0.11,0.19,0.16c0.16,0.13,0.31,0.26,0.46,0.39c0.11,0.1,0.22,0.2,0.33,0.3
				c0.14,0.13,0.28,0.27,0.42,0.41c0.1,0.11,0.21,0.21,0.31,0.32c0.13,0.14,0.25,0.29,0.38,0.44c0.09,0.11,0.19,0.23,0.28,0.34
				c0.12,0.15,0.23,0.31,0.35,0.47c0.08,0.12,0.17,0.24,0.25,0.36c0.12,0.17,0.22,0.35,0.33,0.53c0.07,0.11,0.14,0.22,0.21,0.34
				c0.16,0.29,0.32,0.59,0.46,0.89l0,0c0.05,0.1,0.09,0.2,0.13,0.3c0.09,0.21,0.19,0.42,0.27,0.64c0.04,0.11,0.08,0.23,0.12,0.34
				c0.07,0.21,0.15,0.41,0.21,0.62c0.04,0.12,0.07,0.25,0.1,0.37c0.05,0.2,0.11,0.4,0.16,0.61c0.03,0.13,0.05,0.27,0.08,0.41
				c0.04,0.19,0.07,0.39,0.1,0.58c0.02,0.15,0.04,0.29,0.05,0.44c0.02,0.19,0.04,0.37,0.05,0.56c0.01,0.16,0.02,0.31,0.02,0.47
				c0.01,0.18,0.01,0.36,0.01,0.53c0,0.16,0,0.32-0.01,0.48c-0.01,0.18-0.02,0.35-0.03,0.53c-0.01,0.16-0.02,0.32-0.04,0.48
				c-0.02,0.18-0.05,0.36-0.07,0.55c-0.02,0.15-0.04,0.3-0.07,0.45c-0.04,0.21-0.09,0.42-0.14,0.63c-0.03,0.12-0.05,0.24-0.08,0.36
				c-0.09,0.33-0.18,0.66-0.3,0.99l0,0c0,0.01-0.01,0.02-0.01,0.03c-0.11,0.31-0.23,0.62-0.36,0.93c-0.05,0.11-0.1,0.22-0.15,0.33
				c-0.09,0.2-0.19,0.4-0.29,0.59c-0.07,0.13-0.14,0.26-0.22,0.39c-0.09,0.16-0.19,0.33-0.29,0.49c-0.09,0.14-0.18,0.28-0.27,0.41
				c-0.1,0.14-0.19,0.29-0.3,0.43c-0.1,0.14-0.21,0.28-0.31,0.41c-0.05,0.07-0.1,0.14-0.16,0.21L587.97,979.89l0,0l-37.29,45.66
				c-0.06,0.07-0.12,0.15-0.18,0.22c-2.61,3.06-6.46,4.86-10.48,4.86c-3.7,0-7.31-1.49-9.9-4.13c-0.44-0.45-0.89-0.94-1.33-1.43
				l-0.11-0.12c-0.17-0.18-0.33-0.37-0.49-0.56l-35.4-43.32l0,0L45.33,433.46c-2.01-2.45-3.1-5.52-3.1-8.69
				c0-0.04,0.01-0.09,0.01-0.13c0-0.27,0.02-0.54,0.04-0.81c0.01-0.19,0.02-0.38,0.04-0.57c0.03-0.33,0.09-0.65,0.15-0.97
				c0.02-0.13,0.04-0.25,0.07-0.38c0.07-0.36,0.17-0.71,0.27-1.06c0.02-0.08,0.04-0.16,0.07-0.24c0.12-0.38,0.26-0.75,0.41-1.12
				c0.02-0.04,0.03-0.08,0.05-0.12c0.07-0.16,0.12-0.32,0.19-0.47c0.1-0.22,0.23-0.43,0.35-0.65c0.01-0.03,0.03-0.05,0.04-0.08
				c0.89-1.66,2.11-3.16,3.64-4.35l483.8-377.14c0.09-0.07,0.19-0.13,0.29-0.2C536.52,32.76,543.43,32.67,548.41,36.55z"/>
		</g>
		<g>
			<path class="st0" d="M705.07,627.89c-0.05,2.34-0.11,4.68-0.18,7.01c-0.04,1.22-0.08,2.43-0.13,3.65
				c-0.08,2.24-0.18,4.47-0.28,6.71c-0.06,1.19-0.11,2.39-0.17,3.58c-0.03,0.55-0.05,1.1-0.08,1.64l106.5-149.02l45.03-63.01h-175.2
				c0.29,1.02,0.56,2.04,0.85,3.06c0.45,1.59,0.9,3.19,1.33,4.78c0.6,2.2,1.19,4.41,1.77,6.62c0.41,1.58,0.83,3.16,1.23,4.74
				c0.58,2.27,1.13,4.54,1.68,6.81c0.37,1.53,0.75,3.05,1.1,4.58c0.57,2.42,1.11,4.85,1.65,7.28c0.31,1.39,0.63,2.77,0.92,4.16
				c0.62,2.88,1.21,5.78,1.78,8.67c0.19,0.94,0.39,1.87,0.57,2.81c0.75,3.85,1.47,7.71,2.15,11.57c0.14,0.82,0.27,1.64,0.41,2.46
				c0.52,3.04,1.03,6.08,1.51,9.13c0.22,1.38,0.41,2.76,0.62,4.14c0.37,2.5,0.75,5,1.09,7.51c0.21,1.55,0.41,3.1,0.61,4.64
				c0.31,2.35,0.61,4.71,0.89,7.06c0.19,1.62,0.37,3.25,0.55,4.87c0.25,2.3,0.5,4.59,0.73,6.9c0.17,1.66,0.32,3.31,0.48,4.97
				c0.21,2.29,0.41,4.58,0.59,6.87c0.13,1.66,0.27,3.32,0.39,4.99c0.17,2.32,0.32,4.64,0.47,6.96c0.1,1.63,0.21,3.26,0.3,4.89
				c0.13,2.41,0.24,4.82,0.35,7.24c0.07,1.54,0.14,3.09,0.2,4.63c0.1,2.66,0.16,5.33,0.23,7.99c0.03,1.3,0.08,2.6,0.1,3.9
				c0.07,3.97,0.11,7.94,0.11,11.91c0,3.37-0.03,6.74-0.09,10.11C705.12,625.78,705.09,626.83,705.07,627.89z"/>
		</g>
		<g>
			<path class="st0" d="M558.54,212.5c0.35,0.4,0.69,0.8,1.03,1.2c0.67,0.77,1.34,1.55,2,2.33c0.96,1.12,1.91,2.24,2.86,3.37
				c0.66,0.79,1.32,1.58,1.98,2.37c0.94,1.13,1.88,2.27,2.82,3.42c0.65,0.79,1.29,1.58,1.94,2.38c0.95,1.17,1.89,2.35,2.83,3.53
				c0.62,0.77,1.23,1.54,1.84,2.32c0.98,1.24,1.95,2.5,2.92,3.75c0.56,0.72,1.12,1.44,1.68,2.16c1.09,1.41,2.16,2.84,3.23,4.27
				c0.43,0.57,0.86,1.13,1.29,1.71c3.01,4.03,5.97,8.1,8.88,12.22c0.4,0.57,0.8,1.14,1.2,1.71c1.04,1.48,2.08,2.97,3.1,4.46
				c0.51,0.74,1.02,1.49,1.52,2.24c0.91,1.33,1.81,2.66,2.71,4c0.55,0.82,1.09,1.64,1.63,2.46c0.85,1.28,1.69,2.57,2.53,3.85
				c0.56,0.85,1.11,1.71,1.66,2.57c0.82,1.27,1.63,2.54,2.44,3.82c0.55,0.87,1.1,1.74,1.65,2.62c0.8,1.28,1.59,2.56,2.39,3.85
				c0.54,0.87,1.07,1.75,1.6,2.62c0.8,1.31,1.59,2.63,2.37,3.95c0.51,0.86,1.02,1.71,1.53,2.57c0.81,1.38,1.62,2.76,2.42,4.15
				c0.47,0.8,0.94,1.61,1.4,2.41c0.88,1.54,1.75,3.08,2.62,4.63c0.37,0.66,0.75,1.32,1.12,1.98c2.47,4.44,4.89,8.91,7.25,13.42
				c0.33,0.64,0.66,1.28,0.99,1.92c0.83,1.61,1.67,3.21,2.49,4.83c0.43,0.84,0.84,1.68,1.27,2.52c0.72,1.43,1.43,2.85,2.14,4.29
				c0.45,0.92,0.9,1.84,1.35,2.76c0.66,1.36,1.32,2.73,1.98,4.1c0.46,0.96,0.91,1.92,1.36,2.89c0.63,1.34,1.26,2.69,1.88,4.03
				c0.45,0.98,0.9,1.97,1.35,2.95c0.61,1.34,1.21,2.68,1.81,4.03c0.44,0.99,0.88,1.98,1.32,2.98c0.6,1.36,1.19,2.72,1.77,4.08
				c0.42,0.98,0.85,1.96,1.26,2.94c0.6,1.41,1.19,2.82,1.78,4.24c0.39,0.94,0.78,1.88,1.17,2.82c0.63,1.53,1.24,3.07,1.86,4.61
				c0.33,0.83,0.67,1.66,1,2.49c0.8,2.02,1.58,4.04,2.36,6.07c0.13,0.35,0.27,0.7,0.41,1.05c0.9,2.37,1.79,4.75,2.67,7.14
				c0.29,0.78,0.56,1.57,0.85,2.35c0.58,1.61,1.17,3.23,1.74,4.85c0.34,0.96,0.67,1.92,1,2.88c0.39,1.12,0.78,2.23,1.16,3.35h178.59
				L620.66,157.06C598.68,173.66,577.87,192.24,558.54,212.5z"/>
		</g>
		<g>
			<polygon class="st0" points="887.58,410.98 983.94,410.98 656.35,155.55 803.86,318.49 			"/>
		</g>
	</g>
</g>
</svg>
