<?xml version="1.0" encoding="utf-8"?>
<!-- Generator: Adobe Illustrator 27.1.0, SVG Export Plug-In . SVG Version: 6.00 Build 0)  -->
<svg version="1.1" id="Layer_1" xmlns="http://www.w3.org/2000/svg" xmlns:xlink="http://www.w3.org/1999/xlink" x="0px" y="0px"
	 viewBox="0 0 4000 4000" style="enable-background:new 0 0 4000 4000;" xml:space="preserve">
<style type="text/css">
	.st0{fill:#F49966;}
	.st1{fill:#FFFFFF;}
	.st2{fill:#F2874B;}
	.st3{fill:#FBDCCB;}
	.st4{fill:#F39159;}
	.st5{fill:#FCE5D7;}
	.st6{fill:#F3925B;}
</style>
<g>
	<g>
		<g>
			<rect x="1431.8" y="180.77" class="st0" width="227.28" height="227.28"/>
			<path class="st1" d="M1659.56,408.53h-228.24V180.29h228.24V408.53z M1432.28,407.56h226.32V181.25h-226.32V407.56z"/>
		</g>
		<g>
			<rect x="1659.08" y="180.77" class="st0" width="227.28" height="227.28"/>
			<path class="st1" d="M1886.84,408.53H1658.6V180.29h228.24V408.53z M1659.56,407.56h226.32V181.25h-226.32V407.56z"/>
		</g>
		<g>
			<rect x="1886.36" y="180.77" class="st0" width="227.28" height="227.28"/>
			<path class="st1" d="M2114.12,408.53h-228.24V180.29h228.24V408.53z M1886.84,407.56h226.32V181.25h-226.32V407.56z"/>
		</g>
		<g>
			<rect x="2113.64" y="180.77" class="st0" width="227.28" height="227.28"/>
			<path class="st1" d="M2341.4,408.53h-228.24V180.29h228.24V408.53z M2114.12,407.56h226.32V181.25h-226.32V407.56z"/>
		</g>
		<g>
			<rect x="2340.92" y="180.77" class="st0" width="227.28" height="227.28"/>
			<path class="st1" d="M2568.68,408.53h-228.24V180.29h228.24V408.53z M2341.4,407.56h226.32V181.25H2341.4V407.56z"/>
		</g>
	</g>
	<g>
		<rect x="1431.8" y="635.32" class="st2" width="227.28" height="227.28"/>
		<path class="st1" d="M1659.56,863.08h-228.24V634.84h228.24V863.08z M1432.28,862.12h226.32V635.81h-226.32V862.12z"/>
	</g>
	<g>
		<rect x="1659.08" y="635.32" class="st2" width="227.28" height="227.28"/>
		<path class="st1" d="M1886.84,863.08H1658.6V634.84h228.24V863.08z M1659.56,862.12h226.32V635.81h-226.32V862.12z"/>
	</g>
	<g>
		<rect x="1886.36" y="635.32" class="st3" width="227.28" height="227.28"/>
		<path class="st1" d="M2114.12,863.08h-228.24V634.84h228.24V863.08z M1886.84,862.12h226.32V635.81h-226.32V862.12z"/>
	</g>
	<g>
		<rect x="2113.64" y="635.32" width="227.28" height="227.28"/>
		<path class="st1" d="M2341.4,863.08h-228.24V634.84h228.24V863.08z M2114.12,862.12h226.32V635.81h-226.32V862.12z"/>
	</g>
	<g>
		<rect x="2340.92" y="635.32" class="st3" width="227.28" height="227.28"/>
		<path class="st1" d="M2568.68,863.08h-228.24V634.84h228.24V863.08z M2341.4,862.12h226.32V635.81H2341.4V862.12z"/>
	</g>
	<g>
		<rect x="977.24" y="862.6" class="st2" width="227.28" height="227.28"/>
		<path class="st1" d="M1205,1090.36H976.76V862.12H1205V1090.36z M977.72,1089.4h226.32V863.08H977.72V1089.4z"/>
	</g>
	<g>
		<rect x="1204.52" y="862.6" class="st3" width="227.28" height="227.28"/>
		<path class="st1" d="M1432.28,1090.36h-228.24V862.12h228.24V1090.36z M1205,1089.4h226.32V863.08H1205V1089.4z"/>
	</g>
	<g>
		<rect x="1431.8" y="862.6" class="st2" width="227.28" height="227.28"/>
		<path class="st1" d="M1659.56,1090.36h-228.24V862.12h228.24V1090.36z M1432.28,1089.4h226.32V863.08h-226.32V1089.4z"/>
	</g>
	<g>
		<rect x="1659.08" y="862.6" class="st3" width="227.28" height="227.28"/>
		<path class="st1" d="M1886.84,1090.36H1658.6V862.12h228.24V1090.36z M1659.56,1089.4h226.32V863.08h-226.32V1089.4z"/>
	</g>
	<g>
		<rect x="1886.36" y="862.6" class="st3" width="227.28" height="227.28"/>
		<path class="st1" d="M2114.12,1090.36h-228.24V862.12h228.24V1090.36z M1886.84,1089.4h226.32V863.08h-226.32V1089.4z"/>
	</g>
	<g>
		<rect x="977.24" y="1089.88" class="st2" width="227.28" height="227.28"/>
		<path class="st1" d="M1205,1317.64H976.76V1089.4H1205V1317.64z M977.72,1316.68h226.32v-226.32H977.72V1316.68z"/>
	</g>
	<g>
		<rect x="1204.52" y="1089.88" class="st3" width="227.28" height="227.28"/>
		<path class="st1" d="M1432.28,1317.64h-228.24V1089.4h228.24V1317.64z M1205,1316.68h226.32v-226.32H1205V1316.68z"/>
	</g>
	<g>
		<rect x="1431.8" y="1089.88" class="st2" width="227.28" height="227.28"/>
		<path class="st1" d="M1659.56,1317.64h-228.24V1089.4h228.24V1317.64z M1432.28,1316.68h226.32v-226.32h-226.32V1316.68z"/>
	</g>
	<g>
		<rect x="1659.08" y="1089.88" class="st2" width="227.28" height="227.28"/>
		<path class="st1" d="M1886.84,1317.64H1658.6V1089.4h228.24V1317.64z M1659.56,1316.68h226.32v-226.32h-226.32V1316.68z"/>
	</g>
	<g>
		<rect x="1886.36" y="1089.88" class="st3" width="227.28" height="227.28"/>
		<path class="st1" d="M2114.12,1317.64h-228.24V1089.4h228.24V1317.64z M1886.84,1316.68h226.32v-226.32h-226.32V1316.68z"/>
	</g>
	<g>
		<rect x="977.24" y="1317.16" class="st2" width="227.28" height="227.28"/>
		<path class="st1" d="M1205,1544.92H976.76v-228.24H1205V1544.92z M977.72,1543.96h226.32v-226.32H977.72V1543.96z"/>
	</g>
	<g>
		<rect x="1204.52" y="1317.16" class="st2" width="227.28" height="227.28"/>
		<path class="st1" d="M1432.28,1544.92h-228.24v-228.24h228.24V1544.92z M1205,1543.96h226.32v-226.32H1205V1543.96z"/>
	</g>
	<g>
		<rect x="1431.8" y="1317.16" class="st3" width="227.28" height="227.28"/>
		<path class="st1" d="M1659.56,1544.92h-228.24v-228.24h228.24V1544.92z M1432.28,1543.96h226.32v-226.32h-226.32V1543.96z"/>
	</g>
	<g>
		<rect x="1659.08" y="1317.16" class="st3" width="227.28" height="227.28"/>
		<path class="st1" d="M1886.84,1544.92H1658.6v-228.24h228.24V1544.92z M1659.56,1543.96h226.32v-226.32h-226.32V1543.96z"/>
	</g>
	<g>
		<rect x="1886.36" y="1317.16" class="st3" width="227.28" height="227.28"/>
		<path class="st1" d="M2114.12,1544.92h-228.24v-228.24h228.24V1544.92z M1886.84,1543.96h226.32v-226.32h-226.32V1543.96z"/>
	</g>
	<g>
		<rect x="1431.8" y="1544.44" class="st3" width="227.28" height="227.28"/>
		<path class="st1" d="M1659.56,1772.2h-228.24v-228.24h228.24V1772.2z M1432.28,1771.24h226.32v-226.32h-226.32V1771.24z"/>
	</g>
	<g>
		<rect x="1659.08" y="1544.44" class="st3" width="227.28" height="227.28"/>
		<path class="st1" d="M1886.84,1772.2H1658.6v-228.24h228.24V1772.2z M1659.56,1771.24h226.32v-226.32h-226.32V1771.24z"/>
	</g>
	<g>
		<rect x="1886.36" y="1544.44" class="st3" width="227.28" height="227.28"/>
		<path class="st1" d="M2114.12,1772.2h-228.24v-228.24h228.24V1772.2z M1886.84,1771.24h226.32v-226.32h-226.32V1771.24z"/>
	</g>
	<g>
		<rect x="2113.64" y="1544.44" class="st3" width="227.28" height="227.28"/>
		<path class="st1" d="M2341.4,1772.2h-228.24v-228.24h228.24V1772.2z M2114.12,1771.24h226.32v-226.32h-226.32V1771.24z"/>
	</g>
	<g>
		<rect x="2340.92" y="1544.44" class="st3" width="227.28" height="227.28"/>
		<path class="st1" d="M2568.68,1772.2h-228.24v-228.24h228.24V1772.2z M2341.4,1771.24h226.32v-226.32H2341.4V1771.24z"/>
	</g>
	<g>
		<rect x="1204.52" y="1771.72" class="st0" width="227.28" height="227.28"/>
		<path class="st1" d="M1432.28,1999.48h-228.24v-228.24h228.24V1999.48z M1205,1998.52h226.32V1772.2H1205V1998.52z"/>
	</g>
	<g>
		<rect x="1431.8" y="1771.72" class="st0" width="227.28" height="227.28"/>
		<path class="st1" d="M1659.56,1999.48h-228.24v-228.24h228.24V1999.48z M1432.28,1998.52h226.32V1772.2h-226.32V1998.52z"/>
	</g>
	<g>
		<rect x="1659.08" y="1771.72" class="st4" width="227.28" height="227.28"/>
		<path class="st1" d="M1886.84,1999.48H1658.6v-228.24h228.24V1999.48z M1659.56,1998.52h226.32V1772.2h-226.32V1998.52z"/>
	</g>
	<g>
		<rect x="1886.36" y="1771.72" class="st0" width="227.28" height="227.28"/>
		<path class="st1" d="M2114.12,1999.48h-228.24v-228.24h228.24V1999.48z M1886.84,1998.52h226.32V1772.2h-226.32V1998.52z"/>
	</g>
	<g>
		<rect x="2113.64" y="1771.72" class="st4" width="227.28" height="227.28"/>
		<path class="st1" d="M2341.4,1999.48h-228.24v-228.24h228.24V1999.48z M2114.12,1998.52h226.32V1772.2h-226.32V1998.52z"/>
	</g>
	<g>
		<rect x="2340.92" y="1771.72" class="st0" width="227.28" height="227.28"/>
		<path class="st1" d="M2568.68,1999.48h-228.24v-228.24h228.24V1999.48z M2341.4,1998.52h226.32V1772.2H2341.4V1998.52z"/>
	</g>
	<g>
		<rect x="2568.2" y="1771.72" class="st0" width="227.28" height="227.28"/>
		<path class="st1" d="M2795.96,1999.48h-228.24v-228.24h228.24V1999.48z M2568.68,1998.52H2795V1772.2h-226.32V1998.52z"/>
	</g>
	<g>
		<rect x="977.24" y="1999" class="st0" width="227.28" height="227.28"/>
		<path class="st1" d="M1205,2226.76H976.76v-228.24H1205V2226.76z M977.72,2225.8h226.32v-226.32H977.72V2225.8z"/>
	</g>
	<g>
		<rect x="1204.52" y="1999" class="st0" width="227.28" height="227.28"/>
		<path class="st1" d="M1432.28,2226.76h-228.24v-228.24h228.24V2226.76z M1205,2225.8h226.32v-226.32H1205V2225.8z"/>
	</g>
	<g>
		<rect x="1431.8" y="1999" class="st0" width="227.28" height="227.28"/>
		<path class="st1" d="M1659.56,2226.76h-228.24v-228.24h228.24V2226.76z M1432.28,2225.8h226.32v-226.32h-226.32V2225.8z"/>
	</g>
	<g>
		<rect x="1659.08" y="1999" class="st4" width="227.28" height="227.28"/>
		<path class="st1" d="M1886.84,2226.76H1658.6v-228.24h228.24V2226.76z M1659.56,2225.8h226.32v-226.32h-226.32V2225.8z"/>
	</g>
	<g>
		<rect x="1886.36" y="1999" class="st0" width="227.28" height="227.28"/>
		<path class="st1" d="M2114.12,2226.76h-228.24v-228.24h228.24V2226.76z M1886.84,2225.8h226.32v-226.32h-226.32V2225.8z"/>
	</g>
	<g>
		<rect x="749.96" y="2226.28" class="st0" width="227.28" height="227.28"/>
		<path class="st1" d="M977.72,2454.04H749.48V2225.8h228.24V2454.04z M750.44,2453.08h226.32v-226.32H750.44V2453.08z"/>
	</g>
	<g>
		<rect x="977.24" y="2226.28" class="st0" width="227.28" height="227.28"/>
		<path class="st1" d="M1205,2454.04H976.76V2225.8H1205V2454.04z M977.72,2453.08h226.32v-226.32H977.72V2453.08z"/>
	</g>
	<g>
		<rect x="1204.52" y="2226.28" class="st0" width="227.28" height="227.28"/>
		<path class="st1" d="M1432.28,2454.04h-228.24V2225.8h228.24V2454.04z M1205,2453.08h226.32v-226.32H1205V2453.08z"/>
	</g>
	<g>
		<rect x="1431.8" y="2226.28" class="st0" width="227.28" height="227.28"/>
		<path class="st1" d="M1659.56,2454.04h-228.24V2225.8h228.24V2454.04z M1432.28,2453.08h226.32v-226.32h-226.32V2453.08z"/>
	</g>
	<g>
		<rect x="1659.08" y="2226.28" class="st5" width="227.28" height="227.28"/>
		<path class="st1" d="M1886.84,2454.04H1658.6V2225.8h228.24V2454.04z M1659.56,2453.08h226.32v-226.32h-226.32V2453.08z"/>
	</g>
	<g>
		<rect x="749.96" y="2453.56" class="st3" width="227.28" height="227.28"/>
		<path class="st1" d="M977.72,2681.32H749.48v-228.24h228.24V2681.32z M750.44,2680.36h226.32v-226.32H750.44V2680.36z"/>
	</g>
	<g>
		<rect x="977.24" y="2453.56" class="st3" width="227.28" height="227.28"/>
		<path class="st1" d="M1205,2681.32H976.76v-228.24H1205V2681.32z M977.72,2680.36h226.32v-226.32H977.72V2680.36z"/>
	</g>
	<g>
		<rect x="1204.52" y="2453.56" class="st0" width="227.28" height="227.28"/>
		<path class="st1" d="M1432.28,2681.32h-228.24v-228.24h228.24V2681.32z M1205,2680.36h226.32v-226.32H1205V2680.36z"/>
	</g>
	<g>
		<rect x="1431.8" y="2453.56" class="st4" width="227.28" height="227.28"/>
		<path class="st1" d="M1659.56,2681.32h-228.24v-228.24h228.24V2681.32z M1432.28,2680.36h226.32v-226.32h-226.32V2680.36z"/>
	</g>
	<g>
		<rect x="1659.08" y="2453.56" class="st4" width="227.28" height="227.28"/>
		<path class="st1" d="M1886.84,2681.32H1658.6v-228.24h228.24V2681.32z M1659.56,2680.36h226.32v-226.32h-226.32V2680.36z"/>
	</g>
	<g>
		<rect x="749.96" y="2680.84" class="st3" width="227.28" height="227.28"/>
		<path class="st1" d="M977.72,2908.6H749.48v-228.24h228.24V2908.6z M750.44,2907.64h226.32v-226.32H750.44V2907.64z"/>
	</g>
	<g>
		<rect x="977.24" y="2680.84" class="st3" width="227.28" height="227.28"/>
		<path class="st1" d="M1205,2908.6H976.76v-228.24H1205V2908.6z M977.72,2907.64h226.32v-226.32H977.72V2907.64z"/>
	</g>
	<g>
		<rect x="1204.52" y="2680.84" class="st3" width="227.28" height="227.28"/>
		<path class="st1" d="M1432.28,2908.6h-228.24v-228.24h228.24V2908.6z M1205,2907.64h226.32v-226.32H1205V2907.64z"/>
	</g>
	<g>
		<rect x="1431.8" y="2680.84" class="st4" width="227.28" height="227.28"/>
		<path class="st1" d="M1659.56,2908.6h-228.24v-228.24h228.24V2908.6z M1432.28,2907.64h226.32v-226.32h-226.32V2907.64z"/>
	</g>
	<g>
		<rect x="1659.08" y="2680.84" class="st4" width="227.28" height="227.28"/>
		<path class="st1" d="M1886.84,2908.6H1658.6v-228.24h228.24V2908.6z M1659.56,2907.64h226.32v-226.32h-226.32V2907.64z"/>
	</g>
	<g>
		<rect x="1886.36" y="2680.84" class="st4" width="227.28" height="227.28"/>
		<path class="st1" d="M2114.12,2908.6h-228.24v-228.24h228.24V2908.6z M1886.84,2907.64h226.32v-226.32h-226.32V2907.64z"/>
	</g>
	<g>
		<rect x="2113.64" y="2680.84" class="st4" width="227.28" height="227.28"/>
		<path class="st1" d="M2341.4,2908.6h-228.24v-228.24h228.24V2908.6z M2114.12,2907.64h226.32v-226.32h-226.32V2907.64z"/>
	</g>
	<g>
		<rect x="2340.92" y="2680.84" class="st4" width="227.28" height="227.28"/>
		<path class="st1" d="M2568.68,2908.6h-228.24v-228.24h228.24V2908.6z M2341.4,2907.64h226.32v-226.32H2341.4V2907.64z"/>
	</g>
	<g>
		<rect x="2568.2" y="2680.84" class="st3" width="227.28" height="227.28"/>
		<path class="st1" d="M2795.96,2908.6h-228.24v-228.24h228.24V2908.6z M2568.68,2907.64H2795v-226.32h-226.32V2907.64z"/>
	</g>
	<g>
		<rect x="2795.48" y="2680.84" class="st3" width="227.28" height="227.28"/>
		<path class="st1" d="M3023.24,2908.6H2795v-228.24h228.24V2908.6z M2795.96,2907.64h226.32v-226.32h-226.32V2907.64z"/>
	</g>
	<g>
		<rect x="1886.36" y="2226.28" class="st4" width="227.28" height="227.28"/>
		<path class="st1" d="M2114.12,2454.04h-228.24V2225.8h228.24V2454.04z M1886.84,2453.08h226.32v-226.32h-226.32V2453.08z"/>
	</g>
	<g>
		<rect x="2113.64" y="2226.28" class="st5" width="227.28" height="227.28"/>
		<path class="st1" d="M2341.4,2454.04h-228.24V2225.8h228.24V2454.04z M2114.12,2453.08h226.32v-226.32h-226.32V2453.08z"/>
	</g>
	<g>
		<rect x="2340.92" y="2226.28" class="st0" width="227.28" height="227.28"/>
		<path class="st1" d="M2568.68,2454.04h-228.24V2225.8h228.24V2454.04z M2341.4,2453.08h226.32v-226.32H2341.4V2453.08z"/>
	</g>
	<g>
		<rect x="2568.2" y="2226.28" class="st0" width="227.28" height="227.28"/>
		<path class="st1" d="M2795.96,2454.04h-228.24V2225.8h228.24V2454.04z M2568.68,2453.08H2795v-226.32h-226.32V2453.08z"/>
	</g>
	<g>
		<rect x="2795.48" y="2226.28" class="st0" width="227.28" height="227.28"/>
		<path class="st1" d="M3023.24,2454.04H2795V2225.8h228.24V2454.04z M2795.96,2453.08h226.32v-226.32h-226.32V2453.08z"/>
	</g>
	<g>
		<rect x="2113.64" y="1999" class="st4" width="227.28" height="227.28"/>
		<path class="st1" d="M2341.4,2226.76h-228.24v-228.24h228.24V2226.76z M2114.12,2225.8h226.32v-226.32h-226.32V2225.8z"/>
	</g>
	<g>
		<rect x="2340.92" y="1999" class="st0" width="227.28" height="227.28"/>
		<path class="st1" d="M2568.68,2226.76h-228.24v-228.24h228.24V2226.76z M2341.4,2225.8h226.32v-226.32H2341.4V2225.8z"/>
	</g>
	<g>
		<rect x="2568.2" y="1999" class="st0" width="227.28" height="227.28"/>
		<path class="st1" d="M2795.96,2226.76h-228.24v-228.24h228.24V2226.76z M2568.68,2225.8H2795v-226.32h-226.32V2225.8z"/>
	</g>
	<g>
		<rect x="2795.48" y="1999" class="st0" width="227.28" height="227.28"/>
		<path class="st1" d="M3023.24,2226.76H2795v-228.24h228.24V2226.76z M2795.96,2225.8h226.32v-226.32h-226.32V2225.8z"/>
	</g>
	<g>
		<rect x="2113.64" y="1317.16" class="st2" width="227.28" height="227.28"/>
		<path class="st1" d="M2341.4,1544.92h-228.24v-228.24h228.24V1544.92z M2114.12,1543.96h226.32v-226.32h-226.32V1543.96z"/>
	</g>
	<g>
		<rect x="2340.92" y="1317.16" class="st2" width="227.28" height="227.28"/>
		<path class="st1" d="M2568.68,1544.92h-228.24v-228.24h228.24V1544.92z M2341.4,1543.96h226.32v-226.32H2341.4V1543.96z"/>
	</g>
	<g>
		<rect x="2568.2" y="1317.16" class="st2" width="227.28" height="227.28"/>
		<path class="st1" d="M2795.96,1544.92h-228.24v-228.24h228.24V1544.92z M2568.68,1543.96H2795v-226.32h-226.32V1543.96z"/>
	</g>
	<g>
		<rect x="2795.48" y="1317.16" class="st2" width="227.28" height="227.28"/>
		<path class="st1" d="M3023.24,1544.92H2795v-228.24h228.24V1544.92z M2795.96,1543.96h226.32v-226.32h-226.32V1543.96z"/>
	</g>
	<g>
		<rect x="2113.64" y="1089.88" class="st3" width="227.28" height="227.28"/>
		<path class="st1" d="M2341.4,1317.64h-228.24V1089.4h228.24V1317.64z M2114.12,1316.68h226.32v-226.32h-226.32V1316.68z"/>
	</g>
	<g>
		<rect x="2340.92" y="1089.88" class="st2" width="227.28" height="227.28"/>
		<path class="st1" d="M2568.68,1317.64h-228.24V1089.4h228.24V1317.64z M2341.4,1316.68h226.32v-226.32H2341.4V1316.68z"/>
	</g>
	<g>
		<rect x="2568.2" y="1089.88" class="st3" width="227.28" height="227.28"/>
		<path class="st1" d="M2795.96,1317.64h-228.24V1089.4h228.24V1317.64z M2568.68,1316.68H2795v-226.32h-226.32V1316.68z"/>
	</g>
	<g>
		<rect x="2795.48" y="1089.88" class="st3" width="227.28" height="227.28"/>
		<path class="st1" d="M3023.24,1317.64H2795V1089.4h228.24V1317.64z M2795.96,1316.68h226.32v-226.32h-226.32V1316.68z"/>
	</g>
	<g>
		<rect x="3022.76" y="1089.88" class="st3" width="227.28" height="227.28"/>
		<path class="st1" d="M3250.52,1317.64h-228.24V1089.4h228.24V1317.64z M3023.24,1316.68h226.32v-226.32h-226.32V1316.68z"/>
	</g>
	<g>
		<rect x="2113.64" y="862.6" width="227.28" height="227.28"/>
		<path class="st1" d="M2341.4,1090.36h-228.24V862.12h228.24V1090.36z M2114.12,1089.4h226.32V863.08h-226.32V1089.4z"/>
	</g>
	<g>
		<rect x="2340.92" y="862.6" class="st3" width="227.28" height="227.28"/>
		<path class="st1" d="M2568.68,1090.36h-228.24V862.12h228.24V1090.36z M2341.4,1089.4h226.32V863.08H2341.4V1089.4z"/>
	</g>
	<g>
		<rect x="2568.2" y="862.6" class="st3" width="227.28" height="227.28"/>
		<path class="st1" d="M2795.96,1090.36h-228.24V862.12h228.24V1090.36z M2568.68,1089.4H2795V863.08h-226.32V1089.4z"/>
	</g>
	<g>
		<rect x="2795.48" y="862.6" class="st3" width="227.28" height="227.28"/>
		<path class="st1" d="M3023.24,1090.36H2795V862.12h228.24V1090.36z M2795.96,1089.4h226.32V863.08h-226.32V1089.4z"/>
	</g>
	<g>
		<rect x="1431.8" y="408.05" class="st0" width="227.28" height="227.28"/>
		<path class="st1" d="M1659.56,635.81h-228.24V407.56h228.24V635.81z M1432.28,634.84h226.32V408.53h-226.32V634.84z"/>
	</g>
	<g>
		<rect x="1204.52" y="408.05" class="st0" width="227.28" height="227.28"/>
		<path class="st1" d="M1432.28,635.81h-228.24V407.56h228.24V635.81z M1205,634.84h226.32V408.53H1205V634.84z"/>
	</g>
	<g>
		<rect x="1204.52" y="635.32" class="st2" width="227.28" height="227.28"/>
		<path class="st1" d="M1432.28,863.08h-228.24V634.84h228.24V863.08z M1205,862.12h226.32V635.81H1205V862.12z"/>
	</g>
	<g>
		<rect x="3022.76" y="2226.28" class="st0" width="227.28" height="227.28"/>
		<path class="st1" d="M3250.52,2454.04h-228.24V2225.8h228.24V2454.04z M3023.24,2453.08h226.32v-226.32h-226.32V2453.08z"/>
	</g>
	<g>
		<rect x="1886.36" y="2453.56" class="st4" width="227.28" height="227.28"/>
		<path class="st1" d="M2114.12,2681.32h-228.24v-228.24h228.24V2681.32z M1886.84,2680.36h226.32v-226.32h-226.32V2680.36z"/>
	</g>
	<g>
		<rect x="2113.64" y="2453.56" class="st4" width="227.28" height="227.28"/>
		<path class="st1" d="M2341.4,2681.32h-228.24v-228.24h228.24V2681.32z M2114.12,2680.36h226.32v-226.32h-226.32V2680.36z"/>
	</g>
	<g>
		<rect x="2340.92" y="2453.56" class="st4" width="227.28" height="227.28"/>
		<path class="st1" d="M2568.68,2681.32h-228.24v-228.24h228.24V2681.32z M2341.4,2680.36h226.32v-226.32H2341.4V2680.36z"/>
	</g>
	<g>
		<rect x="2568.2" y="2453.56" class="st0" width="227.28" height="227.28"/>
		<path class="st1" d="M2795.96,2681.32h-228.24v-228.24h228.24V2681.32z M2568.68,2680.36H2795v-226.32h-226.32V2680.36z"/>
	</g>
	<g>
		<rect x="2795.48" y="2453.56" class="st3" width="227.28" height="227.28"/>
		<path class="st1" d="M3023.24,2681.32H2795v-228.24h228.24V2681.32z M2795.96,2680.36h226.32v-226.32h-226.32V2680.36z"/>
	</g>
	<g>
		<rect x="3022.76" y="2453.56" class="st3" width="227.28" height="227.28"/>
		<path class="st1" d="M3250.52,2681.32h-228.24v-228.24h228.24V2681.32z M3023.24,2680.36h226.32v-226.32h-226.32V2680.36z"/>
	</g>
	<g>
		<rect x="3022.76" y="2680.84" class="st3" width="227.28" height="227.28"/>
		<path class="st1" d="M3250.52,2908.6h-228.24v-228.24h228.24V2908.6z M3023.24,2907.64h226.32v-226.32h-226.32V2907.64z"/>
	</g>
	<g>
		<rect x="749.96" y="2908.12" class="st3" width="227.28" height="227.28"/>
		<path class="st1" d="M977.72,3135.88H749.48v-228.24h228.24V3135.88z M750.44,3134.92h226.32V2908.6H750.44V3134.92z"/>
	</g>
	<g>
		<rect x="977.24" y="2908.12" class="st3" width="227.28" height="227.28"/>
		<path class="st1" d="M1205,3135.88H976.76v-228.24H1205V3135.88z M977.72,3134.92h226.32V2908.6H977.72V3134.92z"/>
	</g>
	<g>
		<rect x="1204.52" y="2908.12" class="st4" width="227.28" height="227.28"/>
		<path class="st1" d="M1432.28,3135.88h-228.24v-228.24h228.24V3135.88z M1205,3134.92h226.32V2908.6H1205V3134.92z"/>
	</g>
	<g>
		<rect x="1431.8" y="2908.12" class="st4" width="227.28" height="227.28"/>
		<path class="st1" d="M1659.56,3135.88h-228.24v-228.24h228.24V3135.88z M1432.28,3134.92h226.32V2908.6h-226.32V3134.92z"/>
	</g>
	<g>
		<rect x="1659.08" y="2908.12" class="st4" width="227.28" height="227.28"/>
		<path class="st1" d="M1886.84,3135.88H1658.6v-228.24h228.24V3135.88z M1659.56,3134.92h226.32V2908.6h-226.32V3134.92z"/>
	</g>
	<g>
		<rect x="1886.36" y="2908.12" class="st4" width="227.28" height="227.28"/>
		<path class="st1" d="M2114.12,3135.88h-228.24v-228.24h228.24V3135.88z M1886.84,3134.92h226.32V2908.6h-226.32V3134.92z"/>
	</g>
	<g>
		<rect x="2113.64" y="2908.12" class="st4" width="227.28" height="227.28"/>
		<path class="st1" d="M2341.4,3135.88h-228.24v-228.24h228.24V3135.88z M2114.12,3134.92h226.32V2908.6h-226.32V3134.92z"/>
	</g>
	<g>
		<rect x="2340.92" y="2908.12" class="st4" width="227.28" height="227.28"/>
		<path class="st1" d="M2568.68,3135.88h-228.24v-228.24h228.24V3135.88z M2341.4,3134.92h226.32V2908.6H2341.4V3134.92z"/>
	</g>
	<g>
		<rect x="2568.2" y="2908.12" class="st4" width="227.28" height="227.28"/>
		<path class="st1" d="M2795.96,3135.88h-228.24v-228.24h228.24V3135.88z M2568.68,3134.92H2795V2908.6h-226.32V3134.92z"/>
	</g>
	<g>
		<rect x="2795.48" y="2908.12" class="st3" width="227.28" height="227.28"/>
		<path class="st1" d="M3023.24,3135.88H2795v-228.24h228.24V3135.88z M2795.96,3134.92h226.32V2908.6h-226.32V3134.92z"/>
	</g>
	<g>
		<rect x="3022.76" y="2908.12" class="st3" width="227.28" height="227.28"/>
		<path class="st1" d="M3250.52,3135.88h-228.24v-228.24h228.24V3135.88z M3023.24,3134.92h226.32V2908.6h-226.32V3134.92z"/>
	</g>
	<g>
		<rect x="2340.92" y="3135.4" class="st4" width="227.28" height="227.28"/>
		<path class="st1" d="M2568.68,3363.16h-228.24v-228.24h228.24V3363.16z M2341.4,3362.19h226.32v-226.32H2341.4V3362.19z"/>
	</g>
	<g>
		<rect x="2568.2" y="3135.4" class="st4" width="227.28" height="227.28"/>
		<path class="st1" d="M2795.96,3363.16h-228.24v-228.24h228.24V3363.16z M2568.68,3362.19H2795v-226.32h-226.32V3362.19z"/>
	</g>
	<g>
		<rect x="1204.52" y="3135.4" class="st4" width="227.28" height="227.28"/>
		<path class="st1" d="M1432.28,3363.16h-228.24v-228.24h228.24V3363.16z M1205,3362.19h226.32v-226.32H1205V3362.19z"/>
	</g>
	<g>
		<rect x="1431.8" y="3135.4" class="st4" width="227.28" height="227.28"/>
		<path class="st1" d="M1659.56,3363.16h-228.24v-228.24h228.24V3363.16z M1432.28,3362.19h226.32v-226.32h-226.32V3362.19z"/>
	</g>
	<g>
		<rect x="1659.08" y="3135.4" class="st4" width="227.28" height="227.28"/>
		<path class="st1" d="M1886.84,3363.16H1658.6v-228.24h228.24V3363.16z M1659.56,3362.19h226.32v-226.32h-226.32V3362.19z"/>
	</g>
	<g>
		<rect x="2113.64" y="3135.4" class="st4" width="227.28" height="227.28"/>
		<path class="st1" d="M2341.4,3363.16h-228.24v-228.24h228.24V3363.16z M2114.12,3362.19h226.32v-226.32h-226.32V3362.19z"/>
	</g>
	<g>
		<rect x="1204.52" y="3362.68" class="st6" width="227.28" height="227.28"/>
		<path class="st1" d="M1432.28,3590.44h-228.24v-228.24h228.24V3590.44z M1205,3589.47h226.32v-226.32H1205V3589.47z"/>
	</g>
	<g>
		<rect x="1431.8" y="3362.68" class="st6" width="227.28" height="227.28"/>
		<path class="st1" d="M1659.56,3590.44h-228.24v-228.24h228.24V3590.44z M1432.28,3589.47h226.32v-226.32h-226.32V3589.47z"/>
	</g>
	<g>
		<rect x="2340.92" y="3362.68" class="st6" width="227.28" height="227.28"/>
		<path class="st1" d="M2568.68,3590.44h-228.24v-228.24h228.24V3590.44z M2341.4,3589.47h226.32v-226.32H2341.4V3589.47z"/>
	</g>
	<g>
		<rect x="2568.2" y="3362.68" class="st6" width="227.28" height="227.28"/>
		<path class="st1" d="M2795.96,3590.44h-228.24v-228.24h228.24V3590.44z M2568.68,3589.47H2795v-226.32h-226.32V3589.47z"/>
	</g>
	<g>
		<rect x="1204.52" y="3589.95" class="st6" width="227.28" height="227.28"/>
		<path class="st1" d="M1432.28,3817.72h-228.24v-228.24h228.24V3817.72z M1205,3816.75h226.32v-226.32H1205V3816.75z"/>
	</g>
	<g>
		<rect x="977.24" y="3589.95" class="st6" width="227.28" height="227.28"/>
		<path class="st1" d="M1205,3817.72H976.76v-228.24H1205V3817.72z M977.72,3816.75h226.32v-226.32H977.72V3816.75z"/>
	</g>
	<g>
		<rect x="1431.8" y="3589.95" class="st6" width="227.28" height="227.28"/>
		<path class="st1" d="M1659.56,3817.72h-228.24v-228.24h228.24V3817.72z M1432.28,3816.75h226.32v-226.32h-226.32V3816.75z"/>
	</g>
	<g>
		<rect x="2568.2" y="3589.95" class="st6" width="227.28" height="227.28"/>
		<path class="st1" d="M2795.96,3817.72h-228.24v-228.24h228.24V3817.72z M2568.68,3816.75H2795v-226.32h-226.32V3816.75z"/>
	</g>
	<g>
		<rect x="2340.92" y="3589.95" class="st6" width="227.28" height="227.28"/>
		<path class="st1" d="M2568.68,3817.72h-228.24v-228.24h228.24V3817.72z M2341.4,3816.75h226.32v-226.32H2341.4V3816.75z"/>
	</g>
	<g>
		<rect x="2795.48" y="3589.95" class="st6" width="227.28" height="227.28"/>
		<path class="st1" d="M3023.24,3817.72H2795v-228.24h228.24V3817.72z M2795.96,3816.75h226.32v-226.32h-226.32V3816.75z"/>
	</g>
	<g>
		<rect x="1659.08" y="408.05" class="st0" width="227.28" height="227.28"/>
		<path class="st1" d="M1886.84,635.81H1658.6V407.56h228.24V635.81z M1659.56,634.84h226.32V408.53h-226.32V634.84z"/>
	</g>
	<g>
		<rect x="1886.36" y="408.05" class="st0" width="227.28" height="227.28"/>
		<path class="st1" d="M2114.12,635.81h-228.24V407.56h228.24V635.81z M1886.84,634.84h226.32V408.53h-226.32V634.84z"/>
	</g>
	<g>
		<rect x="2113.64" y="408.05" class="st0" width="227.28" height="227.28"/>
		<path class="st1" d="M2341.4,635.81h-228.24V407.56h228.24V635.81z M2114.12,634.84h226.32V408.53h-226.32V634.84z"/>
	</g>
	<g>
		<rect x="2340.92" y="408.05" class="st0" width="227.28" height="227.28"/>
		<path class="st1" d="M2568.68,635.81h-228.24V407.56h228.24V635.81z M2341.4,634.84h226.32V408.53H2341.4V634.84z"/>
	</g>
	<g>
		<rect x="2568.2" y="408.05" class="st0" width="227.28" height="227.28"/>
		<path class="st1" d="M2795.96,635.81h-228.24V407.56h228.24V635.81z M2568.68,634.84H2795V408.53h-226.32V634.84z"/>
	</g>
	<g>
		<rect x="2795.48" y="408.05" class="st0" width="227.28" height="227.28"/>
		<path class="st1" d="M3023.24,635.81H2795V407.56h228.24V635.81z M2795.96,634.84h226.32V408.53h-226.32V634.84z"/>
	</g>
</g>
</svg>
